<?xml version="1.0" encoding="UTF-8"?><svg id="rewind" xmlns="http://www.w3.org/2000/svg" xmlns:xlink="http://www.w3.org/1999/xlink" viewBox="0 0 84.48 35.63"><defs><mask id="mask" x="0" y="0" width="84.48" height="35.63" maskUnits="userSpaceOnUse"><g id="path-5-inside-2_2093_123"><path d="M2,2h82.48v33.63H2V2Z" fill="#fff"/></g></mask></defs><path d="M2,2h82.48v33.63H2V2Z" shape-rendering="crispEdges" fill="rgba(217,217,217,.3)"/><g mask="url(#mask)"><path d="M2,2V0H0v2h2ZM2,2v2h82.48V0H2v2ZM2,35.63h2V2H0v33.63h2Z" fill="#fff"/></g><path d="M21.17,5.33v26.96l-15.86-13.48,15.86-13.48Z" fill="#fff" stroke="#000"/><path d="M37.67,5.33v26.96l-15.86-13.48,15.86-13.48Z" fill="#fff" stroke="#000"/><rect x="51.09" y="5.4" width="27.46" height="26.19" rx="5.5" ry="5.5" fill="none" stroke="#fff" stroke-width="3"/><path d="M63.55,18.18l10.47,9.07V9.11l-10.47,9.07Z" fill="#fff"/><path d="M52.13,18.18l10.47,9.07V9.11l-10.47,9.07Z" fill="#fff"/></svg>