<?xml version="1.0" encoding="UTF-8"?><svg id="fast-forward" xmlns="http://www.w3.org/2000/svg" xmlns:xlink="http://www.w3.org/1999/xlink" viewBox="0 0 84.48 35.63"><defs><mask id="mask" x="0" y="0" width="84.48" height="35.63" maskUnits="userSpaceOnUse"><g id="path-12-inside-3_2093_123"><path d="M2,2h82.48v33.63H2V2Z" fill="#fff"/></g></mask></defs><path d="M2,2h82.48v33.63H2V2Z" shape-rendering="crispEdges" fill="rgba(217,217,217,.3)"/><g mask="url(#mask)"><path d="M2,2V0H0v2h2ZM2,2v2h82.48V0H2v2ZM2,35.63h2V2H0v33.63h2Z" fill="#fff"/></g><path d="M29.15,32.31V5.35l15.86,13.48-15.86,13.48Z" fill="#fff" stroke="#000"/><path d="M12.65,32.29V5.33l15.86,13.48-15.86,13.48Z" fill="#fff" stroke="#000"/><rect x="51.72" y="6.04" width="27.46" height="26.19" rx="5.5" ry="5.5" fill="none" stroke="#fff" stroke-width="3"/><path d="M66.72,18.81l-10.47,9.07V9.75l10.47,9.07Z" fill="#fff"/><path d="M78.14,18.81l-10.47,9.07V9.75l10.47,9.07Z" fill="#fff"/></svg>