<?xml version="1.0" encoding="UTF-8"?><svg xmlns="http://www.w3.org/2000/svg" viewBox="0 0 933.61 800"><g id="svg2"><path id="path25797" d="M0,232.58h189.69L475.05,0v800l-285.36-232.58H0V232.58Z" fill="#fff"/></g><g id="off"><path id="path25719" d="M930.3,509.1c2.31,2.3,3.46,5.02,3.46,8.14s-1.15,5.84-3.46,8.14l-76.52,76.52c-2.31,2.3-4.94,3.46-7.9,3.46-2.63,0-5.43-1.15-8.39-3.46l-109.1-109.1-109.1,109.1c-2.31,2.3-4.94,3.46-7.9,3.46-2.63,0-5.43-1.15-8.39-3.46l-76.52-76.52c-1.98-1.98-2.96-4.77-2.96-8.39,0-3.29.98-5.92,2.96-7.9l109.1-109.1-108.6-109.1c-2.31-1.98-3.45-4.61-3.45-7.9,0-3.62,1.15-6.42,3.45-8.39l76.02-76.52c2.31-2.3,5.1-3.46,8.39-3.46s5.92,1.15,7.9,3.46l109.1,109.1,109.1-109.1c2.31-2.3,5.02-3.46,8.14-3.46s5.84,1.15,8.14,3.46l76.52,76.52c2.31,2.3,3.46,5.02,3.46,8.14s-1.15,5.84-3.46,8.14l-109.09,109.1,109.1,109.1Z" fill="#fff"/></g></svg>