<?xml version="1.0" encoding="UTF-8"?><svg xmlns="http://www.w3.org/2000/svg" viewBox="0 0 933.61 800"><g id="svg2"><path id="path25797" d="M0,232.58h189.69L475.05,0v800l-285.36-232.58H0V232.58Z" fill="#fff"/></g><g id="on"><path d="M582.27,194.64c56.08,56.08,84.67,124.26,85.77,204.54,0,76.98-28.59,142.95-85.77,197.94l-57.73-59.38c39.59-39.59,59.38-86.32,59.38-140.21s-19.79-102.82-59.38-143.51l57.73-59.38h0Z" fill="#fff"/><path d="M681.24,97.32c82.47,82.47,123.71,181.99,123.71,298.56s-41.24,216.63-123.71,300.21l-61.03-61.03c65.98-64.88,98.97-144.33,98.97-238.35s-32.99-174.02-98.97-240l61.03-59.38Z" fill="#fff"/><path d="M771.96,6.6c50.59,50.58,90.17,109.42,118.76,176.49,28.59,67.08,42.89,138.01,42.89,212.78s-14.3,145.98-42.89,213.61c-28.59,67.63-68.18,126.73-118.76,177.32l-59.38-59.38c91.27-91.27,136.91-201.51,136.91-330.72s-45.64-239.45-136.91-330.72l59.38-59.38Z" fill="#fff"/></g></svg>