<?xml version="1.0" encoding="UTF-8"?><svg id="Layer_1" xmlns="http://www.w3.org/2000/svg" viewBox="0 0 1169.24 186"><path d="M630.2,57.84c1.2,0,1.79.65,1.79,1.95,0,1.4-.6,2.1-1.79,2.1h-3.46v33.03c0,2.5-.7,4.71-2.09,6.61-1.4,1.9-3.23,3.5-5.51,4.8-2.28,1.3-4.87,2.38-7.77,3.23-2.9.85-5.87,1.52-8.9,2.03-3.03.5-6,.83-8.9.98-2.9.15-5.51.23-7.82.23-7,0-13.64-.73-19.92-2.18-6.28-1.45-11.79-4.23-16.53-8.33-4.74-4.1-8.52-9.86-11.34-17.26-2.82-7.4-4.23-17.06-4.23-28.97,0-10.61.98-19.39,2.95-26.35,1.96-6.95,4.85-12.51,8.65-16.66,3.8-4.15,8.48-7.08,14.03-8.78,5.55-1.7,11.91-2.55,19.09-2.55,5.89,0,11,.43,15.31,1.28,4.31.85,7.9,1.83,10.76,2.93,2.86,1.1,5.08,2.18,6.66,3.23,1.58,1.05,2.63,1.78,3.14,2.18,1.62,1.2,2.86,2.2,3.72,3,.85.8,1.45,1.25,1.79,1.35.17.1.3,0,.38-.3.08-.3.15-.68.19-1.13.04-.45.06-.87.06-1.28v-6.3c0-1.1.33-1.93.98-2.48.65-.55,1.29-.83,1.9-.83s1.22.3,1.83.9c.61.6.92,1.45.92,2.55v30.32c0,1.1-.31,1.93-.92,2.48-.61.55-1.22.83-1.83.83s-1.25-.27-1.9-.83c-.66-.55-.98-1.37-.98-2.48,0-1.4-.02-2.68-.06-3.83-.04-1.15-.06-2.28-.06-3.38,0-1.3-.28-2.6-.83-3.9-.56-1.3-1.26-2.55-2.11-3.75-.85-1.2-1.84-2.3-2.95-3.3-1.11-1-2.22-1.85-3.33-2.55-1.28-.9-2.82-1.78-4.61-2.63-1.79-.85-3.7-1.6-5.7-2.25-2.01-.65-4.04-1.2-6.09-1.65-2.05-.45-3.97-.68-5.77-.68-2.73,0-5.06.63-6.98,1.88-1.92,1.25-2.88,3.43-2.88,6.53v82.11c0,3.2.68,5.16,2.05,5.85,1.37.7,3.16,1.05,5.38,1.05,1.79,0,3.4-.35,4.8-1.05,1.41-.7,2.11-2.5,2.11-5.4v-38.28h-3.46c-.34,0-.73-.15-1.15-.45-.43-.3-.64-.85-.64-1.65s.21-1.33.64-1.58c.43-.25.81-.38,1.15-.38h40.23Z" fill="#fccb65"/><path d="M132.26,6.72h-10.13c-4.79,0-15.58,0-21.88,2.08-4.79,2.08-10.49,17.77-13.34,22.83-.45.74-.9,1.34-1.65,1.04l-3-1.04c-.6-.3-.75-.74-.6-1.49l6.99-25.77c.3-2.08,1.2-2.67,1.8-2.67.9,0,92.32,0,93.22,0s1.26.18,1.37.8c.21,1.16,3.3,21.1,4.49,28.23.15.89-.15,1.19-.6,1.34l-3,1.04c-.6.15-.9-.3-1.35-1.19-2.1-4.16-7.64-19.56-11.84-22.53-4.2-2.38-17.68-2.67-23.07-2.67h-10.13l.11,95.37c0,2.55,1.78,3.93,4.55,3.93l15.06.04c.6,0,.9.59.9,1.34v3.12c0,.89-.3,1.49-1.5,1.49h-46.15c-.9,0-1.2-.3-1.2-1.34v-3.42c0-.89.45-1.19,1.05-1.19l15.6-.04c3,0,4.27-1.37,4.27-3.97,0-1.14,0-49.33,0-52.3V6.72Z" fill="#fccb65"/><path d="M210.21,71.37c0,9.31.6,27.45.6,29.79,0,3.6.19,5.33,7.71,5.33h9.61c.9,0,1.2.26,1.2.88v3.72c0,1.09-1.44,1.4-2.64,1.4-1.95,0-34.85,0-36.35,0-.73,0-.73-.46-.73-1.39v-3.58c0-.78.82-1.04,1.42-1.04h5.09c3.3,0,5.69-1.14,5.69-5.33.3-15.52.3-30.1.3-44.69V15.67c0-5.28-2.1-7.76-4.79-7.76h-5.84c-.75,0-1.05-.31-1.05-.93V2.79c0-.78.3-1.09,1.05-1.09,1.05,0,42.7,0,47.2,0,5.09,0,10.16,1.55,14.32,3.34,10.09,4.34,16.89,14.12,17.1,25.12,0,.19,0,.38,0,.57,0,2.91-.43,5.83-1.07,8.55-2.3,9.83-9.93,17.62-19.79,19.77-.37.08-.73.15-1.09.21l-1.98.62c4.2,1.55,8.87,4.34,10.97,7.14,1.8,2.48,11.09,17.07,12.29,18.93.9,1.55,8.51,15.52,10.76,17.69,2.85,2.64,7.04,2.84,10.64,2.84.9,0,1.2.57,1.2,1.19v3.26c0,1.09-.7,1.55-1.59,1.55h-14.68c-4.2,0-9.89-.16-13.19,0-1.09-1.79-4.46-5.55-6.2-8.84-2.39-4.52-8.54-15.52-9.89-18-1.5-2.79-5.69-9.93-8.09-13.34-3.75-5.43-7.19-9.62-13.48-9.62-.6,0-13.11.06-14.69,0v8.69ZM210.51,57.41c2.1.31,13.79,0,15.59,0,23.37,0,28.17-18.93,28.17-26.07s-2.85-13.81-6.59-17.38c-5.39-4.97-12.29-6.67-19.78-6.67-2.4,0-14.09.16-15.29.93-1.2.78-1.8,2.64-1.8,4.5l-.3,44.69Z" fill="#fccb65"/><path d="M321.51,71.18c-1.06,0-2,.66-2.34,1.65-2.11,6.09-8.04,23.44-8.71,27.02-.3,1.19-.3,2.38-.3,3.12,0,1.93,2.4,3.57,5.39,3.57h6.29c1.2,0,1.5.3,1.5.74v3.71c0,.89.29,1.49-.6,1.49h-35.36c-.9,0-1.49-.89-1.49-1.93v-2.82c0-.89.73-1.13.9-1.19h4.49c4.2,0,6.89-2.08,9.59-6.69,1.5-2.67,12.29-29.42,16.78-41.9l14.68-38.93c.49-1.45,3.87-11.07,5.21-15.05.33-.98,1.24-2.16,2.28-2.18,7.55-.21,53.36,0,54.03,0,.9,0,1.5,1.78,1.8,2.67,2.7,9.21,14.38,42.49,17.08,52,3.6,11.59,13.45,39.1,15.28,43.23,2.09,4.73,2.11,6.35,2.09,6.3v1.18c.9,0-4.35-.59-4.32.4v3.12c0,1.88-.31,1.78-1.7,1.78h-68.88c-1.2,0-1.3-.89-1.3-1.78v-.52c0-2.01-.33-3.64,1.7-3.64h3.39c4.2,0,5.39-1.49,4.5-5.5-1.1-4.89-6.19-21.19-8.44-28.16-.33-1.02-1.28-1.71-2.36-1.71h-31.19ZM349.62,65.23c1.67,0,2.86-1.6,2.36-3.18-3.04-9.66-10.78-35.4-11.56-37.97-.6-1.78-.9-2.67-1.5-2.67-.9,0-1.5.59-1.95,1.93-.51,1.66-10.51,28.8-14.01,38.63-.57,1.6.63,3.27,2.33,3.27h24.31Z" fill="#fccb65"/><path d="M446.52,94.76c.36,7.75,2.1,11.48,7.49,11.48h3.9c1.2,0,1.2.62,1.2,1.4v3.57c0,.93,0,1.29-1.2,1.29-1.5,0-30.27-.05-31.76,0-1.38.05-.9-.36-.9-1.44v-3.88c0-.31.3-.93.9-.93h5.09c3.9,0,5.99-3.41,6.74-12.87.15-2.79,0-24.51,0-49.32v-19.7c0-9.31-4.05-16.44-10.64-16.44h-4.79c-.6-.16-.9-.47-.9-1.09V2.63c0-.62.3-.93.9-.93h28.77c1.8,0,2.7.47,3.6,1.4,1.5,1.55,30.87,39.7,33.86,44.05,2.1,2.48,25.47,32.57,27.87,35.67h.6v-16.13c0-13.65.17-50.25,0-52.89-.32-4.88-6.29-5.89-9.89-5.89h-4.79c-.9,0-.9-.62-.9-1.4v-3.57c0-.93,0-1.24,1.2-1.24,1.8,0,35.31,0,37.1,0,1.2,0,1.5.62,1.5,1.09v3.57c0,.93-.3,1.55-.9,1.55h-4.2c-3,0-10.73,1.2-10.73,5.77v95.82c0,3.29-2.4,3-4.2,3-2.1,0-33.12,1.24-34.32,0-1.2-1.55-9.75-12.3-19.04-23.78-10.49-13.34-22.2-29.34-22.2-29.34,0,0,.4,29.87.65,35.39Z" fill="#fccb65"/><path d="M653.02,67.2c.15,8.4,0,23.65,0,26.45,0,8.09,3.3,13.19,6.59,14.12,2.4.62,17.87,1.24,23.56,1.24,2.7,0,9.59-.31,12.59-.62,2.7-.31,9.97-2.86,13.87-6.28,2.7-2.49,11.09-12.76,13.93-16.49.6-.78,1.05-.93,1.65-.62l.81.56c.45.31.6.78.3,1.56l-7.19,23.34c-.45,1.4-1.5,2.33-3.3,2.33h-82.41c-.9,0-1.2-.31-1.2-1.24v-1.75c0-.93.3-1.24,1.5-1.24h5.09c6.89,0,7.49-2.92,7.49-8.67v-52.27c0-12.76.05-32.31,0-34.23-.12-4.24-2.7-7.43-7.19-7.43h-5.69c-.6,0-.9-.31-.9-1.09v-2.06c0-.78.15-1.09.9-1.09h78.81c.75,0,1.05.31,1.2.93.6,2.02,6.29,23.18,6.89,24.74.3.93.15,1.4-.45,1.71l-.52.25c-.45.16-.9,0-1.35-.78-.6-.93-12.89-17.23-16.48-19.41-3.15-1.87-9.37-3.38-13.56-3.53h-26.76c-4.34-.08-7.91,3.42-7.94,7.77l-.25,40.24c4.49,0,26.8-.05,28.96,0,3.35.08,5.09-3.85,6.89-7.58.9-2.02,2.4-5.91,2.4-8.71,0-.93.6-1.24,1.2-1.24l1.92.31c.6,0,1.05.31.9,1.24-.3,2.49.3,30.49.6,33.92,0,.78-2.52,1.71-2.52,1.71-.6.16-.9-.16-1.2-1.09-.6-2.49-1.65-5.91-2.4-7.78-1.35-3.11-4.46-7.54-7.77-7.58-5.42-.07-24.18,0-28.98,0v10.38Z" fill="#fccb65"/><path d="M50.73,34.57c7.13,3.84,12.78,7.52,16.98,11.06,4.2,3.54,7.36,7.04,9.5,10.53,2.14,3.48,3.46,7.02,3.98,10.6.51,3.59.65,7.25.42,10.98-.4,6.87-1.62,12.55-3.68,17.04-2.06,4.49-4.67,8.05-7.84,10.68-3.17,2.63-6.71,4.45-10.63,5.45-3.92,1.01-7.9,1.51-11.94,1.51s-8.27-.38-12.23-1.14c-3.96-.76-7.52-1.61-10.69-2.58-3.17-.96-5.78-1.84-7.84-2.65-2.06-.81-3.21-1.31-3.44-1.51-.4-.2-.85-.35-1.37-.45-.52-.1-1.05-.15-1.6-.15-.95,0-1.76.43-2.43,1.29-.67.86-.89,2.55-.65,5.07,0,1.51-.67,2.27-2.02,2.27-1.27,0-2.02-.36-2.26-1.06-.16-.3-.24-.66-.24-1.06-.08-5.76-.12-11.01-.12-15.75v-18.03c0-.71.28-1.26.83-1.67.55-.4,1.03-.61,1.43-.61.63,0,1.19.25,1.66.76.48.51.71,1.01.71,1.51,0,2.53.08,4.65.24,6.36.16,1.72.43,3.21.83,4.47.4,1.26.91,2.37,1.54,3.33.63.96,1.38,1.89,2.26,2.8,3.64,3.74,7.46,6.41,11.46,8.03,4,1.62,8.29,2.68,12.89,3.18.4,0,.77.03,1.13.08.36.05.69.08,1.01.08,2.93,0,5.03-.5,6.29-1.51,1.27-1.01,1.9-2.27,1.9-3.79s-.58-3.13-1.72-4.85c-1.15-1.72-2.63-3.28-4.45-4.7-6.57-4.95-12.11-9.09-16.63-12.42-4.51-3.33-8.43-6.31-11.76-8.94-2.06-1.51-3.86-3.23-5.4-5.15-1.54-1.92-2.85-4.14-3.92-6.67-1.07-2.52-1.84-5.45-2.32-8.79-.48-3.33-.67-7.17-.59-11.51.08-5.45.69-10.1,1.84-13.94,1.15-3.84,2.71-7.04,4.69-9.62,1.98-2.58,4.31-4.59,7.01-6.06,2.69-1.46,5.62-2.6,8.79-3.41,2.77-.71,5.46-1.21,8.08-1.51,2.61-.3,5.11-.45,7.48-.45,4.28,0,8.15.43,11.64,1.29,3.48.86,6.55,1.87,9.2,3.03,2.65,1.16,4.89,2.27,6.71,3.33,1.82,1.06,3.21,1.74,4.16,2.04.79.2,1.64-.35,2.55-1.67.91-1.31,1.32-2.83,1.25-4.54,0-.81.4-1.41,1.19-1.82.32-.1.67-.15,1.07-.15s.71.13.95.38c.24.25.43.48.59.68.16.3.28.61.36.91v31.81c0,1.01-.28,1.62-.83,1.82-.55.2-1.07.3-1.54.3-.63,0-1.13-.18-1.48-.53-.36-.35-.58-.78-.65-1.29-.4-5.55-1.56-10.15-3.5-13.79-1.94-3.64-4.28-6.51-7.01-8.63-2.73-2.12-5.62-3.61-8.67-4.47-3.05-.86-5.88-1.29-8.49-1.29-1.82,0-3.43.13-4.81.38-1.39.25-2.48.68-3.27,1.29-1.9,1.51-3.05,3.06-3.44,4.62-.4,1.57-.28,3.16.36,4.77.63,1.62,1.66,3.16,3.09,4.62,1.43,1.47,2.97,2.83,4.63,4.09,1.66,1.26,3.28,2.4,4.87,3.41,1.58,1.01,2.89,1.77,3.92,2.27Z" fill="#fccb65"/><path d="M21.94,148.2l14.18,35.99h-5.34l-3.97-10.84h-15.35l-4.07,10.84H2.47l14.13-35.99h5.34ZM25.3,169.32l-6.05-16.79h-.1l-6.15,16.79h12.3Z" fill="#fccb65"/><path d="M71.99,153.12c-1.61-1.16-3.67-1.74-6.18-1.74-1.02,0-2.02.1-3,.3-.98.2-1.86.54-2.62,1.01-.76.47-1.37,1.1-1.83,1.89-.46.79-.69,1.77-.69,2.95,0,1.11.33,2.01.99,2.7.66.69,1.54,1.25,2.64,1.69,1.1.44,2.35.8,3.74,1.08,1.39.29,2.8.6,4.24.93,1.44.34,2.85.73,4.24,1.18,1.39.45,2.63,1.07,3.74,1.84,1.1.77,1.98,1.75,2.64,2.92.66,1.18.99,2.65.99,4.44,0,1.92-.43,3.55-1.3,4.91-.86,1.36-1.97,2.47-3.33,3.33-1.36.86-2.87,1.48-4.55,1.87-1.68.39-3.35.58-5.01.58-2.03,0-3.96-.25-5.77-.76-1.81-.5-3.41-1.27-4.78-2.29-1.37-1.02-2.46-2.34-3.25-3.93-.8-1.6-1.19-3.49-1.19-5.67h4.58c0,1.51.3,2.82.89,3.91.59,1.09,1.37,1.99,2.34,2.7.97.71,2.09,1.23,3.38,1.56,1.29.34,2.61.5,3.97.5,1.08,0,2.18-.1,3.28-.3,1.1-.2,2.09-.55,2.97-1.03.88-.49,1.59-1.15,2.14-1.99.54-.84.81-1.92.81-3.23,0-1.24-.33-2.25-.99-3.02-.66-.77-1.54-1.4-2.64-1.89-1.1-.49-2.35-.88-3.74-1.18-1.39-.3-2.8-.61-4.24-.93-1.44-.32-2.86-.69-4.24-1.11-1.39-.42-2.64-.97-3.74-1.66-1.1-.69-1.98-1.58-2.64-2.67-.66-1.09-.99-2.46-.99-4.11,0-1.81.37-3.39,1.12-4.71.75-1.33,1.74-2.42,2.97-3.28,1.24-.86,2.64-1.49,4.22-1.92,1.58-.42,3.19-.63,4.85-.63,1.86,0,3.59.22,5.19.66,1.59.44,2.99,1.13,4.19,2.07,1.2.94,2.15,2.13,2.85,3.55.69,1.43,1.08,3.13,1.14,5.12h-4.58c-.27-2.59-1.21-4.46-2.82-5.62Z" fill="#fccb65"/><path d="M82.89,152.23v-4.03h29.03v4.03h-12.1v31.96h-4.83v-31.96h-12.1Z" fill="#fccb65"/><path d="M114.99,159.12c.73-2.27,1.82-4.28,3.28-6.02,1.46-1.75,3.27-3.14,5.44-4.18,2.17-1.04,4.69-1.56,7.57-1.56s5.41.52,7.57,1.56c2.17,1.04,3.98,2.44,5.44,4.18,1.46,1.75,2.55,3.76,3.28,6.02.73,2.27,1.09,4.63,1.09,7.08s-.36,4.81-1.09,7.08c-.73,2.27-1.82,4.28-3.28,6.02-1.46,1.75-3.27,3.13-5.44,4.16-2.17,1.02-4.69,1.54-7.57,1.54s-5.41-.51-7.57-1.54c-2.17-1.02-3.98-2.41-5.44-4.16-1.46-1.75-2.55-3.76-3.28-6.02-.73-2.27-1.09-4.63-1.09-7.08s.36-4.81,1.09-7.08ZM119.44,171.57c.47,1.76,1.22,3.35,2.24,4.76,1.02,1.41,2.32,2.55,3.91,3.4,1.59.86,3.49,1.29,5.69,1.29s4.1-.43,5.69-1.29c1.59-.86,2.9-1.99,3.91-3.4,1.02-1.41,1.76-3,2.24-4.76.47-1.76.71-3.55.71-5.37s-.24-3.6-.71-5.37c-.48-1.76-1.22-3.35-2.24-4.76-1.02-1.41-2.32-2.55-3.91-3.4-1.59-.86-3.49-1.29-5.69-1.29s-4.1.43-5.69,1.29c-1.59.86-2.9,1.99-3.91,3.4s-1.76,3-2.24,4.76c-.47,1.76-.71,3.55-.71,5.37s.24,3.6.71,5.37Z" fill="#fccb65"/><path d="M171.65,148.2c3.46,0,6.16.84,8.11,2.52,1.95,1.68,2.92,3.98,2.92,6.91,0,2.18-.5,4.1-1.5,5.75-1,1.65-2.6,2.77-4.8,3.38v.1c1.05.2,1.91.54,2.57,1.01.66.47,1.19,1.03,1.58,1.69.39.66.68,1.39.86,2.19.19.81.33,1.65.43,2.52.07.87.12,1.76.15,2.67.03.91.12,1.8.25,2.67.14.87.33,1.71.58,2.5.25.79.64,1.49,1.14,2.09h-5.39c-.34-.37-.57-.87-.69-1.51-.12-.64-.2-1.35-.23-2.14-.03-.79-.07-1.64-.1-2.55-.03-.91-.14-1.8-.3-2.67-.14-.87-.3-1.71-.51-2.5-.2-.79-.53-1.48-.97-2.07-.44-.59-1.02-1.06-1.73-1.41s-1.66-.53-2.85-.53h-11.79v15.37h-4.83v-35.99h17.08ZM172.67,164.53c1.02-.17,1.91-.5,2.67-.98.76-.49,1.37-1.14,1.83-1.97.46-.82.69-1.89.69-3.2,0-1.81-.51-3.29-1.53-4.44-1.02-1.14-2.66-1.71-4.93-1.71h-12v12.55h10.07c1.12,0,2.19-.08,3.2-.25Z" fill="#fccb65"/><path d="M202.51,184.19h-4.83v-14.72l-14.03-21.27h5.74l10.88,17.14,10.62-17.14h5.49l-13.88,21.27v14.72Z" fill="#fccb65"/><path d="M220.24,152.23v-4.03h29.03v4.03h-12.1v31.96h-4.83v-31.96h-12.1Z" fill="#fccb65"/><path d="M278.34,148.2v4.03h-20.23v11.44h18.86v4.03h-18.86v12.45h20.39v4.03h-25.21v-35.99h25.06Z" fill="#fccb65"/><path d="M289.17,148.2v31.96h19.22v4.03h-24.05v-35.99h4.83Z" fill="#fccb65"/><path d="M317.44,148.2v31.96h19.22v4.03h-24.05v-35.99h4.83Z" fill="#fccb65"/><path d="M345.9,148.2v35.99h-4.83v-35.99h4.83Z" fill="#fccb65"/><path d="M359.12,148.2l19.11,29.19h.1v-29.19h4.58v35.99h-5.29l-18.96-28.88h-.1v28.88h-4.58v-35.99h5.13Z" fill="#fccb65"/><path d="M412.6,183.76c-2.1.82-4.22,1.24-6.35,1.24-2.71,0-5.13-.5-7.27-1.49-2.14-.99-3.95-2.33-5.44-4.01-1.49-1.68-2.63-3.61-3.41-5.8-.78-2.18-1.17-4.45-1.17-6.81,0-2.62.36-5.12,1.09-7.49.73-2.37,1.81-4.44,3.25-6.23,1.44-1.78,3.24-3.2,5.39-4.26,2.15-1.06,4.67-1.59,7.55-1.59,1.97,0,3.82.23,5.57.68,1.75.45,3.3,1.17,4.68,2.14,1.37.98,2.52,2.21,3.46,3.71.93,1.5,1.57,3.3,1.91,5.42h-4.83c-.24-1.38-.68-2.56-1.32-3.55-.64-.99-1.44-1.81-2.39-2.44-.95-.64-2.03-1.12-3.23-1.44-1.2-.32-2.48-.48-3.84-.48-2.2,0-4.09.44-5.67,1.31-1.58.87-2.86,2.02-3.86,3.45-1,1.43-1.74,3.06-2.21,4.89-.47,1.83-.71,3.7-.71,5.62s.27,3.69.81,5.42c.54,1.73,1.34,3.26,2.39,4.59,1.05,1.33,2.35,2.39,3.89,3.18,1.54.79,3.33,1.18,5.36,1.18,1.9,0,3.58-.3,5.03-.91,1.46-.6,2.69-1.44,3.69-2.5,1-1.06,1.75-2.3,2.26-3.73.51-1.43.73-2.97.66-4.61h-11.59v-4.03h15.91v18.95h-3.05l-1.27-4.49c-1.42,1.88-3.19,3.23-5.29,4.06Z" fill="#fccb65"/><path d="M461.63,153.12c-1.61-1.16-3.67-1.74-6.18-1.74-1.02,0-2.02.1-3,.3-.98.2-1.86.54-2.62,1.01-.76.47-1.37,1.1-1.83,1.89-.46.79-.69,1.77-.69,2.95,0,1.11.33,2.01.99,2.7.66.69,1.54,1.25,2.64,1.69,1.1.44,2.35.8,3.74,1.08,1.39.29,2.8.6,4.24.93,1.44.34,2.85.73,4.24,1.18,1.39.45,2.63,1.07,3.74,1.84,1.1.77,1.98,1.75,2.64,2.92.66,1.18.99,2.65.99,4.44,0,1.92-.43,3.55-1.3,4.91-.86,1.36-1.97,2.47-3.33,3.33-1.36.86-2.87,1.48-4.55,1.87-1.68.39-3.35.58-5.01.58-2.03,0-3.96-.25-5.77-.76-1.81-.5-3.41-1.27-4.78-2.29-1.37-1.02-2.46-2.34-3.25-3.93-.8-1.6-1.19-3.49-1.19-5.67h4.58c0,1.51.3,2.82.89,3.91.59,1.09,1.37,1.99,2.34,2.7.97.71,2.09,1.23,3.38,1.56,1.29.34,2.61.5,3.97.5,1.08,0,2.18-.1,3.28-.3,1.1-.2,2.09-.55,2.97-1.03.88-.49,1.59-1.15,2.14-1.99.54-.84.81-1.92.81-3.23,0-1.24-.33-2.25-.99-3.02-.66-.77-1.54-1.4-2.64-1.89-1.1-.49-2.35-.88-3.74-1.18-1.39-.3-2.8-.61-4.24-.93-1.44-.32-2.86-.69-4.24-1.11-1.39-.42-2.64-.97-3.74-1.66-1.1-.69-1.98-1.58-2.64-2.67-.66-1.09-.99-2.46-.99-4.11,0-1.81.37-3.39,1.12-4.71.75-1.33,1.74-2.42,2.97-3.28,1.24-.86,2.64-1.49,4.22-1.92,1.58-.42,3.19-.63,4.85-.63,1.86,0,3.59.22,5.19.66,1.59.44,2.99,1.13,4.19,2.07,1.2.94,2.15,2.13,2.85,3.55.69,1.43,1.08,3.13,1.14,5.12h-4.58c-.27-2.59-1.21-4.46-2.82-5.62Z" fill="#fccb65"/><path d="M472.53,152.23v-4.03h29.03v4.03h-12.1v31.96h-4.83v-31.96h-12.1Z" fill="#fccb65"/><path d="M530.84,181.55c-2.47,2.3-6,3.45-10.57,3.45s-8.33-1.1-10.95-3.3c-2.63-2.2-3.94-5.7-3.94-10.51v-22.99h4.83v22.99c0,3.23.86,5.67,2.59,7.33,1.73,1.66,4.22,2.5,7.47,2.5,3.08,0,5.43-.83,7.04-2.5,1.61-1.66,2.41-4.11,2.41-7.33v-22.99h4.83v22.99c0,4.6-1.24,8.06-3.71,10.36Z" fill="#fccb65"/><path d="M554.73,148.2c5.59,0,9.9,1.41,12.91,4.23,3.02,2.82,4.52,7.12,4.52,12.9,0,3.02-.34,5.7-1.02,8.04-.68,2.34-1.73,4.3-3.15,5.9-1.42,1.6-3.24,2.82-5.44,3.65-2.2.84-4.81,1.26-7.83,1.26h-12.45v-35.99h12.45ZM555.14,180.16c.54,0,1.22-.04,2.03-.13.81-.08,1.68-.29,2.59-.6.92-.32,1.82-.78,2.72-1.39.9-.6,1.7-1.43,2.41-2.47.71-1.04,1.3-2.34,1.75-3.91.46-1.56.69-3.45.69-5.67s-.21-4.07-.64-5.77c-.42-1.7-1.12-3.14-2.08-4.33-.97-1.19-2.21-2.1-3.74-2.72-1.53-.62-3.41-.93-5.64-.93h-8.13v27.93h8.03Z" fill="#fccb65"/><path d="M583.1,148.2v35.99h-4.83v-35.99h4.83Z" fill="#fccb65"/><path d="M590.29,159.12c.73-2.27,1.82-4.28,3.28-6.02,1.46-1.75,3.27-3.14,5.44-4.18,2.17-1.04,4.69-1.56,7.57-1.56s5.41.52,7.57,1.56c2.17,1.04,3.98,2.44,5.44,4.18,1.46,1.75,2.55,3.76,3.28,6.02.73,2.27,1.09,4.63,1.09,7.08s-.36,4.81-1.09,7.08c-.73,2.27-1.82,4.28-3.28,6.02-1.46,1.75-3.27,3.13-5.44,4.16-2.17,1.02-4.69,1.54-7.57,1.54s-5.41-.51-7.57-1.54c-2.17-1.02-3.98-2.41-5.44-4.16-1.46-1.75-2.55-3.76-3.28-6.02-.73-2.27-1.09-4.63-1.09-7.08s.36-4.81,1.09-7.08ZM594.74,171.57c.47,1.76,1.22,3.35,2.24,4.76,1.02,1.41,2.32,2.55,3.91,3.4,1.59.86,3.49,1.29,5.69,1.29s4.1-.43,5.69-1.29c1.59-.86,2.9-1.99,3.91-3.4,1.02-1.41,1.76-3,2.24-4.76.47-1.76.71-3.55.71-5.37s-.24-3.6-.71-5.37c-.47-1.76-1.22-3.35-2.24-4.76s-2.32-2.55-3.91-3.4c-1.59-.86-3.49-1.29-5.69-1.29s-4.1.43-5.69,1.29c-1.59.86-2.9,1.99-3.91,3.4s-1.76,3-2.24,4.76c-.47,1.76-.71,3.55-.71,5.37s.24,3.6.71,5.37Z" fill="#fccb65"/><path d="M826.92,4.54h.5c4.96,0,6.61,5.34,6.61,9.07v49.68c0,29.88,20.83,50.04,49.1,49.99,20.75-.04,39.39-21.52,39.39-47.5V13.35c0-3.74,1.65-9.07,6.61-9.07h.5c1.32,0,2.15-1.07,2.15-2.14s-.83-2.13-2.15-2.13h-25.63c-1.32,0-2.15,1.07-2.15,2.13s.83,2.14,2.15,2.14h.17c4.96,0,6.61,5.34,6.61,9.07v33.3l-.07,20.5c0,19.03-12.59,31.32-26.42,31.54-18.85.3-28.26-15.3-28.26-34.33V13.61c0-3.53,1.48-8.49,5.83-9.03.67-.08,1.32-.3,1.88-.67.6-.4,1.22-.96,1.22-1.51,0-1.07-.83-2.13-2.15-2.13h-35.89c-1.32,0-2.15,1.07-2.15,2.13s.83,2.14,2.15,2.14Z" fill="#fccb65"/><path d="M986.77,113.28c23.44,0,40.89-16.34,45.77-36.33.56-2.29-2.93-3.82-3.91-1.68-6.98,14.35-19.4,26.41-38.51,26.41-22.75,0-39.91-17.86-39.91-44.73,0-28.4,16.89-47.63,38.93-47.63,19.4,0,37.29,11.04,37.68,25.5,0,2.79,4.16,2.79,4.19,0V6.56c-.42-1.98-4.05-1.68-4.19-.15-.15,1.57.37,6.06-2.17,6.78-2.15.61-7.19-2.22-9.55-4.03-5.72-4.58-14.93-9.16-27.07-9.16-29.16,0-54.42,23.82-54.42,56.94s24.56,56.33,53.17,56.33Z" fill="#fccb65"/><path d="M1161.53,126.35h-3.07c-.56.24-1.06.63-1.47,1.17-1.05,1.36-1.56,3.6-1.07,6.32,1.31,6.4-4.92,12.45-14.93,12.45-11.49,0-21.66-11.95-26.42-17.5-.65-.76-1.31-1.58-1.99-2.43-2.33-2.96-4.83-6.49-7.41-10.41-13.72-20.86-29.93-53.07-37.86-72.71.08-.11.15-.21.24-.32,19.68-26.49,43.54-39.03,49.54-39.03h.42c1.12,0,1.81-.93,1.81-1.86s-.7-1.86-1.81-1.86h-26.65c-1.12,0-1.81.93-1.81,1.86s.7,1.86,1.81,1.86c.84,0,1.12.93.14,1.7-1.95,1.55-26.23,22.46-35.72,40.89V11.77c0-3.25,1.4-7.9,5.58-7.9h.14c1.12,0,1.81-.93,1.81-1.86s-.7-1.86-1.81-1.86h-25.96c-1.12,0-1.81.93-1.81,1.86s.7,1.86,1.81,1.86h.42c4.19,0,5.58,4.65,5.58,7.9v91.23c0,3.25-1.4,7.9-5.58,7.9h-.42c-1.12,0-1.81.93-1.81,1.86s.7,1.86,1.81,1.86h25.96c1.12,0,1.81-.93,1.81-1.86s-.7-1.86-1.81-1.86h-.14c-4.19,0-5.58-4.65-5.58-7.9v-40.43c1.54-2.97,3.16-5.93,4.91-8.77,9.05,22.71,20.75,46.87,29.85,62.13,2.44,4.08,4.69,7.54,6.65,10.15.07.09.13.17.2.26,13.73,18.32,28.25,26,40.66,26,18.54,0,27.73-11.78,27.73-20.03,0-3.04-1.62-5.24-3.75-5.97Z" fill="#fccb65"/><path d="M879.28,126.35h-1.77c-3.01.43-4.31,3.71-4.31,7.14,0,2.94,1.84,5.51,1.84,6.12,0,2.39-5.3,5.98-10.81,5.98-6.24,0-17.43-7.85-28.79-19.24h0c-3.21-3.22-6.44-6.72-9.58-10.41h0c-5.3-6.23-10.33-12.99-14.57-19.8-.04-13.76-.27-78.55-.27-78.55,0-8.4,2.73-13.12,7.69-13.12,1.22,0,2.45-.79,2.45-2.01s-.81-2.18-2.14-2.18l-49.86.15c-1.32,0-20.8,4.3-22.13,19.35,0,1.39.88,17.2,14.16,23.65l11.03.2c3.39-.11,5.99-2.95,5.7-6.23-13.18-4.52-10.65-33.1,3.11-32.93,5.83-.18,8.28,7.7,8.15,13.12v83.24c0,4.85.13,6.19-3.07,6.19-2.58-.5-3.94,4.22-.97,4.62h13.11c2.56,0,6.05.85,10.16,4.3,1.88,1.58,3.89,3.7,6.01,6.53.47.63,1.85,2.13,3.54,3.88h0c3.19,3.33,7.46,7.59,8.6,8.56,11.5,9.83,20.85,16.93,37.3,16.93,10.65,0,20.97-6.53,20.97-17.73,0-4.6-1.14-7.37-5.55-7.75Z" fill="#fccb65"/><path d="M634.17,58.84c1.2,0,1.79.65,1.79,1.95,0,1.4-.6,2.1-1.79,2.1h-3.46v33.03c0,2.5-.7,4.71-2.09,6.61-1.4,1.9-3.23,3.5-5.51,4.8-2.28,1.3-4.87,2.38-7.77,3.23-2.9.85-5.87,1.52-8.9,2.03-3.03.5-6,.83-8.9.98-2.9.15-5.51.23-7.82.23-7,0-13.64-.73-19.92-2.18-6.28-1.45-11.79-4.23-16.53-8.33-4.74-4.1-8.52-9.86-11.34-17.26-2.82-7.4-4.23-17.06-4.23-28.97,0-10.61.98-19.39,2.95-26.35,1.96-6.95,4.85-12.51,8.65-16.66,3.8-4.15,8.48-7.08,14.03-8.78,5.55-1.7,11.91-2.55,19.09-2.55,5.89,0,11,.43,15.31,1.28,4.31.85,7.9,1.83,10.76,2.93,2.86,1.1,5.08,2.18,6.66,3.23,1.58,1.05,2.63,1.78,3.14,2.18,1.62,1.2,2.86,2.2,3.72,3,.85.8,1.45,1.25,1.79,1.35.17.1.3,0,.38-.3.08-.3.15-.68.19-1.13.04-.45.06-.87.06-1.28v-6.3c0-1.1.33-1.93.98-2.48.65-.55,1.29-.83,1.9-.83s1.22.3,1.83.9c.61.6.92,1.45.92,2.55v30.32c0,1.1-.31,1.93-.92,2.48-.61.55-1.22.83-1.83.83s-1.25-.27-1.9-.83c-.66-.55-.98-1.37-.98-2.48,0-1.4-.02-2.68-.06-3.83-.04-1.15-.06-2.28-.06-3.38,0-1.3-.28-2.6-.83-3.9-.56-1.3-1.26-2.55-2.11-3.75-.85-1.2-1.84-2.3-2.95-3.3-1.11-1-2.22-1.85-3.33-2.55-1.28-.9-2.82-1.78-4.61-2.63-1.79-.85-3.7-1.6-5.7-2.25-2.01-.65-4.04-1.2-6.09-1.65-2.05-.45-3.97-.68-5.77-.68-2.73,0-5.06.63-6.98,1.88-1.92,1.25-2.88,3.43-2.88,6.53v82.11c0,3.2.68,5.16,2.05,5.85,1.37.7,3.16,1.05,5.38,1.05,1.79,0,3.4-.35,4.8-1.05,1.41-.7,2.11-2.5,2.11-5.4v-38.28h-3.46c-.34,0-.73-.15-1.15-.45-.43-.3-.64-.85-.64-1.65s.21-1.33.64-1.58c.43-.25.81-.38,1.15-.38h40.23Z" fill="#fff"/><path d="M136.23,7.72h-10.13c-4.79,0-15.58,0-21.88,2.08-4.79,2.08-10.49,17.77-13.34,22.83-.45.74-.9,1.34-1.65,1.04l-3-1.04c-.6-.3-.75-.74-.6-1.49l6.99-25.77c.3-2.08,1.2-2.67,1.8-2.67.9,0,92.32,0,93.22,0s1.26.18,1.37.8c.21,1.16,3.3,21.1,4.49,28.23.15.89-.15,1.19-.6,1.34l-3,1.04c-.6.15-.9-.3-1.35-1.19-2.1-4.16-7.64-19.56-11.84-22.53-4.2-2.38-17.68-2.67-23.07-2.67h-10.13l.11,95.37c0,2.55,1.78,3.93,4.55,3.93l15.06.04c.6,0,.9.59.9,1.34v3.12c0,.89-.3,1.49-1.5,1.49h-46.15c-.9,0-1.2-.3-1.2-1.34v-3.42c0-.89.45-1.19,1.05-1.19l15.6-.04c3,0,4.27-1.37,4.27-3.97,0-1.14,0-49.33,0-52.3V7.72Z" fill="#fff"/><path d="M214.18,72.37c0,9.31.6,27.45.6,29.79,0,3.6.19,5.33,7.71,5.33h9.61c.9,0,1.2.26,1.2.88v3.72c0,1.09-1.44,1.4-2.64,1.4-1.95,0-34.85,0-36.35,0-.73,0-.73-.46-.73-1.39v-3.58c0-.78.82-1.04,1.42-1.04h5.09c3.3,0,5.69-1.14,5.69-5.33.3-15.52.3-30.1.3-44.69V16.67c0-5.28-2.1-7.76-4.79-7.76h-5.84c-.75,0-1.05-.31-1.05-.93V3.79c0-.78.3-1.09,1.05-1.09,1.05,0,42.7,0,47.2,0,5.09,0,10.16,1.55,14.32,3.34,10.09,4.34,16.89,14.12,17.1,25.12,0,.19,0,.38,0,.57,0,2.91-.43,5.83-1.07,8.55-2.3,9.83-9.93,17.62-19.79,19.77-.37.08-.73.15-1.09.21l-1.98.62c4.2,1.55,8.87,4.34,10.97,7.14,1.8,2.48,11.09,17.07,12.29,18.93.9,1.55,8.51,15.52,10.76,17.69,2.85,2.64,7.04,2.84,10.64,2.84.9,0,1.2.57,1.2,1.19v3.26c0,1.09-.7,1.55-1.59,1.55h-14.68c-4.2,0-9.89-.16-13.19,0-1.09-1.79-4.46-5.55-6.2-8.84-2.39-4.52-8.54-15.52-9.89-18-1.5-2.79-5.69-9.93-8.09-13.34-3.75-5.43-7.19-9.62-13.48-9.62-.6,0-13.11.06-14.69,0v8.69ZM214.48,58.41c2.1.31,13.79,0,15.59,0,23.37,0,28.17-18.93,28.17-26.07s-2.85-13.81-6.59-17.38c-5.39-4.97-12.29-6.67-19.78-6.67-2.4,0-14.09.16-15.29.93-1.2.78-1.8,2.64-1.8,4.5l-.3,44.69Z" fill="#fff"/><path d="M325.48,72.18c-1.06,0-2,.66-2.34,1.65-2.11,6.09-8.04,23.44-8.71,27.02-.3,1.19-.3,2.38-.3,3.12,0,1.93,2.4,3.57,5.39,3.57h6.29c1.2,0,1.5.3,1.5.74v3.71c0,.89.29,1.49-.6,1.49h-35.36c-.9,0-1.49-.89-1.49-1.93v-2.82c0-.89.73-1.13.9-1.19h4.49c4.2,0,6.89-2.08,9.59-6.69,1.5-2.67,12.29-29.42,16.78-41.9l14.68-38.93c.49-1.45,3.87-11.07,5.21-15.05.33-.98,1.24-2.16,2.28-2.18,7.55-.21,53.36,0,54.03,0,.9,0,1.5,1.78,1.8,2.67,2.7,9.21,14.38,42.49,17.08,52,3.6,11.59,13.45,39.1,15.28,43.23,2.09,4.73,2.11,6.35,2.09,6.3v1.18c.9,0-4.35-.59-4.32.4v3.12c0,1.88-.31,1.78-1.7,1.78h-68.88c-1.2,0-1.3-.89-1.3-1.78v-.52c0-2.01-.33-3.64,1.7-3.64h3.39c4.2,0,5.39-1.49,4.5-5.5-1.1-4.89-6.19-21.19-8.44-28.16-.33-1.02-1.28-1.71-2.36-1.71h-31.19ZM353.59,66.23c1.67,0,2.86-1.6,2.36-3.18-3.04-9.66-10.78-35.4-11.56-37.97-.6-1.78-.9-2.67-1.5-2.67-.9,0-1.5.59-1.95,1.93-.51,1.66-10.51,28.8-14.01,38.63-.57,1.6.63,3.27,2.33,3.27h24.31Z" fill="#fff"/><path d="M450.48,95.76c.36,7.75,2.1,11.48,7.49,11.48h3.9c1.2,0,1.2.62,1.2,1.4v3.57c0,.93,0,1.29-1.2,1.29-1.5,0-30.27-.05-31.76,0-1.38.05-.9-.36-.9-1.44v-3.88c0-.31.3-.93.9-.93h5.09c3.9,0,5.99-3.41,6.74-12.87.15-2.79,0-24.51,0-49.32v-19.7c0-9.31-4.05-16.44-10.64-16.44h-4.79c-.6-.16-.9-.47-.9-1.09V3.63c0-.62.3-.93.9-.93h28.77c1.8,0,2.7.47,3.6,1.4,1.5,1.55,30.87,39.7,33.86,44.05,2.1,2.48,25.47,32.57,27.87,35.67h.6v-16.13c0-13.65.17-50.25,0-52.89-.32-4.88-6.29-5.89-9.89-5.89h-4.79c-.9,0-.9-.62-.9-1.4v-3.57c0-.93,0-1.24,1.2-1.24,1.8,0,35.31,0,37.1,0,1.2,0,1.5.62,1.5,1.09v3.57c0,.93-.3,1.55-.9,1.55h-4.2c-3,0-10.73,1.2-10.73,5.77v95.82c0,3.29-2.4,3-4.2,3-2.1,0-33.12,1.24-34.32,0-1.2-1.55-9.75-12.3-19.04-23.78-10.49-13.34-22.2-29.34-22.2-29.34,0,0,.4,29.87.65,35.39Z" fill="#fff"/><path d="M656.98,68.2c.15,8.4,0,23.65,0,26.45,0,8.09,3.3,13.19,6.59,14.12,2.4.62,17.87,1.24,23.56,1.24,2.7,0,9.59-.31,12.59-.62,2.7-.31,9.97-2.86,13.87-6.28,2.7-2.49,11.09-12.76,13.93-16.49.6-.78,1.05-.93,1.65-.62l.81.56c.45.31.6.78.3,1.56l-7.19,23.34c-.45,1.4-1.5,2.33-3.3,2.33h-82.41c-.9,0-1.2-.31-1.2-1.24v-1.75c0-.93.3-1.24,1.5-1.24h5.09c6.89,0,7.49-2.92,7.49-8.67v-52.27c0-12.76.05-32.31,0-34.23-.12-4.24-2.7-7.43-7.19-7.43h-5.69c-.6,0-.9-.31-.9-1.09v-2.06c0-.78.15-1.09.9-1.09h78.81c.75,0,1.05.31,1.2.93.6,2.02,6.29,23.18,6.89,24.74.3.93.15,1.4-.45,1.71l-.52.25c-.45.16-.9,0-1.35-.78-.6-.93-12.89-17.23-16.48-19.41-3.15-1.87-9.37-3.38-13.56-3.53h-26.76c-4.34-.08-7.91,3.42-7.94,7.77l-.25,40.24c4.49,0,26.8-.05,28.96,0,3.35.08,5.09-3.85,6.89-7.58.9-2.02,2.4-5.91,2.4-8.71,0-.93.6-1.24,1.2-1.24l1.92.31c.6,0,1.05.31.9,1.24-.3,2.49.3,30.49.6,33.92,0,.78-2.52,1.71-2.52,1.71-.6.16-.9-.16-1.2-1.09-.6-2.49-1.65-5.91-2.4-7.78-1.35-3.11-4.46-7.54-7.77-7.58-5.42-.07-24.18,0-28.98,0v10.38Z" fill="#fff"/><path d="M54.69,35.57c7.13,3.84,12.78,7.52,16.98,11.06,4.2,3.54,7.36,7.04,9.5,10.53,2.14,3.48,3.46,7.02,3.98,10.6.51,3.59.65,7.25.42,10.98-.4,6.87-1.62,12.55-3.68,17.04-2.06,4.49-4.67,8.05-7.84,10.68-3.17,2.63-6.71,4.45-10.63,5.45-3.92,1.01-7.9,1.51-11.94,1.51s-8.27-.38-12.23-1.14c-3.96-.76-7.52-1.61-10.69-2.58-3.17-.96-5.78-1.84-7.84-2.65-2.06-.81-3.21-1.31-3.44-1.51-.4-.2-.85-.35-1.37-.45-.52-.1-1.05-.15-1.6-.15-.95,0-1.76.43-2.43,1.29-.67.86-.89,2.55-.65,5.07,0,1.51-.67,2.27-2.02,2.27-1.27,0-2.02-.36-2.26-1.06-.16-.3-.24-.66-.24-1.06-.08-5.76-.12-11.01-.12-15.75v-18.03c0-.71.28-1.26.83-1.67.55-.4,1.03-.61,1.43-.61.63,0,1.19.25,1.66.76.48.51.71,1.01.71,1.51,0,2.53.08,4.65.24,6.36.16,1.72.43,3.21.83,4.47.4,1.26.91,2.37,1.54,3.33.63.96,1.38,1.89,2.26,2.8,3.64,3.74,7.46,6.41,11.46,8.03,4,1.62,8.29,2.68,12.89,3.18.4,0,.77.03,1.13.08.36.05.69.08,1.01.08,2.93,0,5.03-.5,6.29-1.51,1.27-1.01,1.9-2.27,1.9-3.79s-.58-3.13-1.72-4.85c-1.15-1.72-2.63-3.28-4.45-4.7-6.57-4.95-12.11-9.09-16.63-12.42-4.51-3.33-8.43-6.31-11.76-8.94-2.06-1.51-3.86-3.23-5.4-5.15-1.54-1.92-2.85-4.14-3.92-6.67-1.07-2.52-1.84-5.45-2.32-8.79-.48-3.33-.67-7.17-.59-11.51.08-5.45.69-10.1,1.84-13.94,1.15-3.84,2.71-7.04,4.69-9.62,1.98-2.58,4.31-4.59,7.01-6.06,2.69-1.46,5.62-2.6,8.79-3.41,2.77-.71,5.46-1.21,8.08-1.51,2.61-.3,5.11-.45,7.48-.45,4.28,0,8.15.43,11.64,1.29,3.48.86,6.55,1.87,9.2,3.03,2.65,1.16,4.89,2.27,6.71,3.33,1.82,1.06,3.21,1.74,4.16,2.04.79.2,1.64-.35,2.55-1.67.91-1.31,1.32-2.83,1.25-4.54,0-.81.4-1.41,1.19-1.82.32-.1.67-.15,1.07-.15s.71.13.95.38c.24.25.43.48.59.68.16.3.28.61.36.91v31.81c0,1.01-.28,1.62-.83,1.82-.55.2-1.07.3-1.54.3-.63,0-1.13-.18-1.48-.53-.36-.35-.58-.78-.65-1.29-.4-5.55-1.56-10.15-3.5-13.79-1.94-3.64-4.28-6.51-7.01-8.63-2.73-2.12-5.62-3.61-8.67-4.47-3.05-.86-5.88-1.29-8.49-1.29-1.82,0-3.43.13-4.81.38-1.39.25-2.48.68-3.27,1.29-1.9,1.51-3.05,3.06-3.44,4.62-.4,1.57-.28,3.16.36,4.77.63,1.62,1.66,3.16,3.09,4.62,1.43,1.47,2.97,2.83,4.63,4.09,1.66,1.26,3.28,2.4,4.87,3.41,1.58,1.01,2.89,1.77,3.92,2.27Z" fill="#fff"/><path d="M25.91,149.2l14.18,35.99h-5.34l-3.97-10.84h-15.35l-4.07,10.84h-4.93l14.13-35.99h5.34ZM29.26,170.32l-6.05-16.79h-.1l-6.15,16.79h12.3Z" fill="#fff"/><path d="M75.95,154.12c-1.61-1.16-3.67-1.74-6.18-1.74-1.02,0-2.02.1-3,.3-.98.2-1.86.54-2.62,1.01-.76.47-1.37,1.1-1.83,1.89-.46.79-.69,1.77-.69,2.95,0,1.11.33,2.01.99,2.7.66.69,1.54,1.25,2.64,1.69,1.1.44,2.35.8,3.74,1.08,1.39.29,2.8.6,4.24.93,1.44.34,2.85.73,4.24,1.18,1.39.45,2.63,1.07,3.74,1.84,1.1.77,1.98,1.75,2.64,2.92.66,1.18.99,2.65.99,4.44,0,1.92-.43,3.55-1.3,4.91-.86,1.36-1.97,2.47-3.33,3.33-1.36.86-2.87,1.48-4.55,1.87-1.68.39-3.35.58-5.01.58-2.03,0-3.96-.25-5.77-.76-1.81-.5-3.41-1.27-4.78-2.29-1.37-1.02-2.46-2.34-3.25-3.93-.8-1.6-1.19-3.49-1.19-5.67h4.58c0,1.51.3,2.82.89,3.91.59,1.09,1.37,1.99,2.34,2.7.97.71,2.09,1.23,3.38,1.56,1.29.34,2.61.5,3.97.5,1.08,0,2.18-.1,3.28-.3,1.1-.2,2.09-.55,2.97-1.03.88-.49,1.59-1.15,2.14-1.99.54-.84.81-1.92.81-3.23,0-1.24-.33-2.25-.99-3.02-.66-.77-1.54-1.4-2.64-1.89-1.1-.49-2.35-.88-3.74-1.18-1.39-.3-2.8-.61-4.24-.93-1.44-.32-2.86-.69-4.24-1.11-1.39-.42-2.64-.97-3.74-1.66-1.1-.69-1.98-1.58-2.64-2.67-.66-1.09-.99-2.46-.99-4.11,0-1.81.37-3.39,1.12-4.71.75-1.33,1.74-2.42,2.97-3.28,1.24-.86,2.64-1.49,4.22-1.92,1.58-.42,3.19-.63,4.85-.63,1.86,0,3.59.22,5.19.66,1.59.44,2.99,1.13,4.19,2.07,1.2.94,2.15,2.13,2.85,3.55.69,1.43,1.08,3.13,1.14,5.12h-4.58c-.27-2.59-1.21-4.46-2.82-5.62Z" fill="#fff"/><path d="M86.86,153.23v-4.03h29.03v4.03h-12.1v31.96h-4.83v-31.96h-12.1Z" fill="#fff"/><path d="M118.96,160.12c.73-2.27,1.82-4.28,3.28-6.02,1.46-1.75,3.27-3.14,5.44-4.18,2.17-1.04,4.69-1.56,7.57-1.56s5.41.52,7.57,1.56c2.17,1.04,3.98,2.44,5.44,4.18,1.46,1.75,2.55,3.76,3.28,6.02.73,2.27,1.09,4.63,1.09,7.08s-.36,4.81-1.09,7.08c-.73,2.27-1.82,4.28-3.28,6.02-1.46,1.75-3.27,3.13-5.44,4.16-2.17,1.02-4.69,1.54-7.57,1.54s-5.41-.51-7.57-1.54c-2.17-1.02-3.98-2.41-5.44-4.16-1.46-1.75-2.55-3.76-3.28-6.02-.73-2.27-1.09-4.63-1.09-7.08s.36-4.81,1.09-7.08ZM123.41,172.57c.47,1.76,1.22,3.35,2.24,4.76,1.02,1.41,2.32,2.55,3.91,3.4,1.59.86,3.49,1.29,5.69,1.29s4.1-.43,5.69-1.29c1.59-.86,2.9-1.99,3.91-3.4,1.02-1.41,1.76-3,2.24-4.76.47-1.76.71-3.55.71-5.37s-.24-3.6-.71-5.37c-.48-1.76-1.22-3.35-2.24-4.76-1.02-1.41-2.32-2.55-3.91-3.4-1.59-.86-3.49-1.29-5.69-1.29s-4.1.43-5.69,1.29c-1.59.86-2.9,1.99-3.91,3.4s-1.76,3-2.24,4.76c-.47,1.76-.71,3.55-.71,5.37s.24,3.6.71,5.37Z" fill="#fff"/><path d="M175.62,149.2c3.46,0,6.16.84,8.11,2.52,1.95,1.68,2.92,3.98,2.92,6.91,0,2.18-.5,4.1-1.5,5.75-1,1.65-2.6,2.77-4.8,3.38v.1c1.05.2,1.91.54,2.57,1.01.66.47,1.19,1.03,1.58,1.69.39.66.68,1.39.86,2.19.19.81.33,1.65.43,2.52.07.87.12,1.76.15,2.67.03.91.12,1.8.25,2.67.14.87.33,1.71.58,2.5.25.79.64,1.49,1.14,2.09h-5.39c-.34-.37-.57-.87-.69-1.51-.12-.64-.2-1.35-.23-2.14-.03-.79-.07-1.64-.1-2.55-.03-.91-.14-1.8-.3-2.67-.14-.87-.3-1.71-.51-2.5-.2-.79-.53-1.48-.97-2.07-.44-.59-1.02-1.06-1.73-1.41s-1.66-.53-2.85-.53h-11.79v15.37h-4.83v-35.99h17.08ZM176.63,165.53c1.02-.17,1.91-.5,2.67-.98.76-.49,1.37-1.14,1.83-1.97.46-.82.69-1.89.69-3.2,0-1.81-.51-3.29-1.53-4.44-1.02-1.14-2.66-1.71-4.93-1.71h-12v12.55h10.07c1.12,0,2.19-.08,3.2-.25Z" fill="#fff"/><path d="M206.47,185.19h-4.83v-14.72l-14.03-21.27h5.74l10.88,17.14,10.62-17.14h5.49l-13.88,21.27v14.72Z" fill="#fff"/><path d="M224.2,153.23v-4.03h29.03v4.03h-12.1v31.96h-4.83v-31.96h-12.1Z" fill="#fff"/><path d="M282.31,149.2v4.03h-20.23v11.44h18.86v4.03h-18.86v12.45h20.39v4.03h-25.21v-35.99h25.06Z" fill="#fff"/><path d="M293.14,149.2v31.96h19.22v4.03h-24.05v-35.99h4.83Z" fill="#fff"/><path d="M321.4,149.2v31.96h19.22v4.03h-24.05v-35.99h4.83Z" fill="#fff"/><path d="M349.87,149.2v35.99h-4.83v-35.99h4.83Z" fill="#fff"/><path d="M363.08,149.2l19.11,29.19h.1v-29.19h4.58v35.99h-5.29l-18.96-28.88h-.1v28.88h-4.58v-35.99h5.13Z" fill="#fff"/><path d="M416.56,184.76c-2.1.82-4.22,1.24-6.35,1.24-2.71,0-5.13-.5-7.27-1.49-2.14-.99-3.95-2.33-5.44-4.01-1.49-1.68-2.63-3.61-3.41-5.8-.78-2.18-1.17-4.45-1.17-6.81,0-2.62.36-5.12,1.09-7.49.73-2.37,1.81-4.44,3.25-6.23,1.44-1.78,3.24-3.2,5.39-4.26,2.15-1.06,4.67-1.59,7.55-1.59,1.97,0,3.82.23,5.57.68,1.75.45,3.3,1.17,4.68,2.14,1.37.98,2.52,2.21,3.46,3.71.93,1.5,1.57,3.3,1.91,5.42h-4.83c-.24-1.38-.68-2.56-1.32-3.55-.64-.99-1.44-1.81-2.39-2.44-.95-.64-2.03-1.12-3.23-1.44-1.2-.32-2.48-.48-3.84-.48-2.2,0-4.09.44-5.67,1.31-1.58.87-2.86,2.02-3.86,3.45-1,1.43-1.74,3.06-2.21,4.89-.47,1.83-.71,3.7-.71,5.62s.27,3.69.81,5.42c.54,1.73,1.34,3.26,2.39,4.59,1.05,1.33,2.35,2.39,3.89,3.18,1.54.79,3.33,1.18,5.36,1.18,1.9,0,3.58-.3,5.03-.91,1.46-.6,2.69-1.44,3.69-2.5,1-1.06,1.75-2.3,2.26-3.73.51-1.43.73-2.97.66-4.61h-11.59v-4.03h15.91v18.95h-3.05l-1.27-4.49c-1.42,1.88-3.19,3.23-5.29,4.06Z" fill="#fff"/><path d="M465.59,154.12c-1.61-1.16-3.67-1.74-6.18-1.74-1.02,0-2.02.1-3,.3-.98.2-1.86.54-2.62,1.01-.76.47-1.37,1.1-1.83,1.89-.46.79-.69,1.77-.69,2.95,0,1.11.33,2.01.99,2.7.66.69,1.54,1.25,2.64,1.69,1.1.44,2.35.8,3.74,1.08,1.39.29,2.8.6,4.24.93,1.44.34,2.85.73,4.24,1.18,1.39.45,2.63,1.07,3.74,1.84,1.1.77,1.98,1.75,2.64,2.92.66,1.18.99,2.65.99,4.44,0,1.92-.43,3.55-1.3,4.91-.86,1.36-1.97,2.47-3.33,3.33-1.36.86-2.87,1.48-4.55,1.87-1.68.39-3.35.58-5.01.58-2.03,0-3.96-.25-5.77-.76-1.81-.5-3.41-1.27-4.78-2.29-1.37-1.02-2.46-2.34-3.25-3.93-.8-1.6-1.19-3.49-1.19-5.67h4.58c0,1.51.3,2.82.89,3.91.59,1.09,1.37,1.99,2.34,2.7.97.71,2.09,1.23,3.38,1.56,1.29.34,2.61.5,3.97.5,1.08,0,2.18-.1,3.28-.3,1.1-.2,2.09-.55,2.97-1.03.88-.49,1.59-1.15,2.14-1.99.54-.84.81-1.92.81-3.23,0-1.24-.33-2.25-.99-3.02-.66-.77-1.54-1.4-2.64-1.89-1.1-.49-2.35-.88-3.74-1.18-1.39-.3-2.8-.61-4.24-.93-1.44-.32-2.86-.69-4.24-1.11-1.39-.42-2.64-.97-3.74-1.66-1.1-.69-1.98-1.58-2.64-2.67-.66-1.09-.99-2.46-.99-4.11,0-1.81.37-3.39,1.12-4.71.75-1.33,1.74-2.42,2.97-3.28,1.24-.86,2.64-1.49,4.22-1.92,1.58-.42,3.19-.63,4.85-.63,1.86,0,3.59.22,5.19.66,1.59.44,2.99,1.13,4.19,2.07,1.2.94,2.15,2.13,2.85,3.55.69,1.43,1.08,3.13,1.14,5.12h-4.58c-.27-2.59-1.21-4.46-2.82-5.62Z" fill="#fff"/><path d="M476.5,153.23v-4.03h29.03v4.03h-12.1v31.96h-4.83v-31.96h-12.1Z" fill="#fff"/><path d="M534.81,182.55c-2.47,2.3-6,3.45-10.57,3.45s-8.33-1.1-10.95-3.3c-2.63-2.2-3.94-5.7-3.94-10.51v-22.99h4.83v22.99c0,3.23.86,5.67,2.59,7.33,1.73,1.66,4.22,2.5,7.47,2.5,3.08,0,5.43-.83,7.04-2.5,1.61-1.66,2.41-4.11,2.41-7.33v-22.99h4.83v22.99c0,4.6-1.24,8.06-3.71,10.36Z" fill="#fff"/><path d="M558.7,149.2c5.59,0,9.9,1.41,12.91,4.23,3.02,2.82,4.52,7.12,4.52,12.9,0,3.02-.34,5.7-1.02,8.04-.68,2.34-1.73,4.3-3.15,5.9-1.42,1.6-3.24,2.82-5.44,3.65-2.2.84-4.81,1.26-7.83,1.26h-12.45v-35.99h12.45ZM559.1,181.16c.54,0,1.22-.04,2.03-.13.81-.08,1.68-.29,2.59-.6.92-.32,1.82-.78,2.72-1.39.9-.6,1.7-1.43,2.41-2.47.71-1.04,1.3-2.34,1.75-3.91.46-1.56.69-3.45.69-5.67s-.21-4.07-.64-5.77c-.42-1.7-1.12-3.14-2.08-4.33-.97-1.19-2.21-2.1-3.74-2.72-1.53-.62-3.41-.93-5.64-.93h-8.13v27.93h8.03Z" fill="#fff"/><path d="M587.06,149.2v35.99h-4.83v-35.99h4.83Z" fill="#fff"/><path d="M594.26,160.12c.73-2.27,1.82-4.28,3.28-6.02,1.46-1.75,3.27-3.14,5.44-4.18,2.17-1.04,4.69-1.56,7.57-1.56s5.41.52,7.57,1.56c2.17,1.04,3.98,2.44,5.44,4.18,1.46,1.75,2.55,3.76,3.28,6.02.73,2.27,1.09,4.63,1.09,7.08s-.36,4.81-1.09,7.08c-.73,2.27-1.82,4.28-3.28,6.02-1.46,1.75-3.27,3.13-5.44,4.16-2.17,1.02-4.69,1.54-7.57,1.54s-5.41-.51-7.57-1.54c-2.17-1.02-3.98-2.41-5.44-4.16-1.46-1.75-2.55-3.76-3.28-6.02-.73-2.27-1.09-4.63-1.09-7.08s.36-4.81,1.09-7.08ZM598.7,172.57c.47,1.76,1.22,3.35,2.24,4.76,1.02,1.41,2.32,2.55,3.91,3.4,1.59.86,3.49,1.29,5.69,1.29s4.1-.43,5.69-1.29c1.59-.86,2.9-1.99,3.91-3.4,1.02-1.41,1.76-3,2.24-4.76.47-1.76.71-3.55.71-5.37s-.24-3.6-.71-5.37c-.47-1.76-1.22-3.35-2.24-4.76s-2.32-2.55-3.91-3.4c-1.59-.86-3.49-1.29-5.69-1.29s-4.1.43-5.69,1.29c-1.59.86-2.9,1.99-3.91,3.4s-1.76,3-2.24,4.76c-.47,1.76-.71,3.55-.71,5.37s.24,3.6.71,5.37Z" fill="#fff"/><path d="M830.88,5.54h.5c4.96,0,6.61,5.34,6.61,9.07v49.68c0,29.88,20.83,50.04,49.1,49.99,20.75-.04,39.39-21.52,39.39-47.5V14.35c0-3.74,1.65-9.07,6.61-9.07h.5c1.32,0,2.15-1.07,2.15-2.14s-.83-2.13-2.15-2.13h-25.63c-1.32,0-2.15,1.07-2.15,2.13s.83,2.14,2.15,2.14h.17c4.96,0,6.61,5.34,6.61,9.07v33.3l-.07,20.5c0,19.03-12.59,31.32-26.42,31.54-18.85.3-28.26-15.3-28.26-34.33V14.61c0-3.53,1.48-8.49,5.83-9.03.67-.08,1.32-.3,1.88-.67.6-.4,1.22-.96,1.22-1.51,0-1.07-.83-2.13-2.15-2.13h-35.89c-1.32,0-2.15,1.07-2.15,2.13s.83,2.14,2.15,2.14Z" fill="#fff"/><path d="M990.73,114.28c23.44,0,40.89-16.34,45.77-36.33.56-2.29-2.93-3.82-3.91-1.68-6.98,14.35-19.4,26.41-38.51,26.41-22.75,0-39.91-17.86-39.91-44.73,0-28.4,16.89-47.63,38.93-47.63,19.4,0,37.29,11.04,37.68,25.5,0,2.79,4.16,2.79,4.19,0V7.56c-.42-1.98-4.05-1.68-4.19-.15-.15,1.57.37,6.06-2.17,6.78-2.15.61-7.19-2.22-9.55-4.03-5.72-4.58-14.93-9.16-27.07-9.16-29.16,0-54.42,23.82-54.42,56.94s24.56,56.33,53.17,56.33Z" fill="#fff"/><path d="M1165.49,127.35h-3.07c-.56.24-1.06.63-1.47,1.17-1.05,1.36-1.56,3.6-1.07,6.32,1.31,6.4-4.92,12.45-14.93,12.45-11.49,0-21.66-11.95-26.42-17.5-.65-.76-1.31-1.58-1.99-2.43-2.33-2.96-4.83-6.49-7.41-10.41-13.72-20.86-29.93-53.07-37.86-72.71.08-.11.15-.21.24-.32,19.68-26.49,43.54-39.03,49.54-39.03h.42c1.12,0,1.81-.93,1.81-1.86s-.7-1.86-1.81-1.86h-26.65c-1.12,0-1.81.93-1.81,1.86s.7,1.86,1.81,1.86c.84,0,1.12.93.14,1.7-1.95,1.55-26.23,22.46-35.72,40.89V12.77c0-3.25,1.4-7.9,5.58-7.9h.14c1.12,0,1.81-.93,1.81-1.86s-.7-1.86-1.81-1.86h-25.96c-1.12,0-1.81.93-1.81,1.86s.7,1.86,1.81,1.86h.42c4.19,0,5.58,4.65,5.58,7.9v91.23c0,3.25-1.4,7.9-5.58,7.9h-.42c-1.12,0-1.81.93-1.81,1.86s.7,1.86,1.81,1.86h25.96c1.12,0,1.81-.93,1.81-1.86s-.7-1.86-1.81-1.86h-.14c-4.19,0-5.58-4.65-5.58-7.9v-40.43c1.54-2.97,3.16-5.93,4.91-8.77,9.05,22.71,20.75,46.87,29.85,62.13,2.44,4.08,4.69,7.54,6.65,10.15.07.09.13.17.2.26,13.73,18.32,28.25,26,40.66,26,18.54,0,27.73-11.78,27.73-20.03,0-3.04-1.62-5.24-3.75-5.97Z" fill="#fff"/><path d="M883.25,127.35h-1.77c-3.01.43-4.31,3.71-4.31,7.14,0,2.94,1.84,5.51,1.84,6.12,0,2.39-5.3,5.98-10.81,5.98-6.24,0-17.43-7.85-28.79-19.24h0c-3.21-3.22-6.44-6.72-9.58-10.41h0c-5.3-6.23-10.33-12.99-14.57-19.8-.04-13.76-.27-78.55-.27-78.55,0-8.4,2.73-13.12,7.69-13.12,1.22,0,2.45-.79,2.45-2.01s-.81-2.18-2.14-2.18l-49.86.15c-1.32,0-20.8,4.3-22.13,19.35,0,1.39.88,17.2,14.16,23.65l11.03.2c3.39-.11,5.99-2.95,5.7-6.23-13.18-4.52-10.65-33.1,3.11-32.93,5.83-.18,8.28,7.7,8.15,13.12v83.24c0,4.85.13,6.19-3.07,6.19-2.58-.5-3.94,4.22-.97,4.62h13.11c2.56,0,6.05.85,10.16,4.3,1.88,1.58,3.89,3.7,6.01,6.53.47.63,1.85,2.13,3.54,3.88h0c3.19,3.33,7.46,7.59,8.6,8.56,11.5,9.83,20.85,16.93,37.3,16.93,10.65,0,20.97-6.53,20.97-17.73,0-4.6-1.14-7.37-5.55-7.75Z" fill="#fff"/></svg>