<?xml version="1.0" encoding="UTF-8"?><svg id="Layer_1" xmlns="http://www.w3.org/2000/svg" viewBox="0 0 1169.24 153.34"><path d="M630.2,57.84c1.2,0,1.79.65,1.79,1.95,0,1.4-.6,2.1-1.79,2.1h-3.46v33.03c0,2.5-.7,4.71-2.09,6.61-1.4,1.9-3.23,3.5-5.51,4.8-2.28,1.3-4.87,2.38-7.77,3.23-2.9.85-5.87,1.52-8.9,2.03-3.03.5-6,.83-8.9.98-2.9.15-5.51.23-7.82.23-7,0-13.64-.73-19.92-2.18-6.28-1.45-11.79-4.23-16.53-8.33-4.74-4.1-8.52-9.86-11.34-17.26-2.82-7.4-4.23-17.06-4.23-28.97,0-10.61.98-19.39,2.95-26.35,1.96-6.95,4.85-12.51,8.65-16.66,3.8-4.15,8.48-7.08,14.03-8.78,5.55-1.7,11.91-2.55,19.09-2.55,5.89,0,11,.43,15.31,1.28,4.31.85,7.9,1.83,10.76,2.93,2.86,1.1,5.08,2.18,6.66,3.23,1.58,1.05,2.63,1.78,3.14,2.18,1.62,1.2,2.86,2.2,3.72,3,.85.8,1.45,1.25,1.79,1.35.17.1.3,0,.38-.3.08-.3.15-.68.19-1.13.04-.45.06-.87.06-1.28v-6.3c0-1.1.33-1.93.98-2.48.65-.55,1.29-.83,1.9-.83s1.22.3,1.83.9c.61.6.92,1.45.92,2.55v30.32c0,1.1-.31,1.93-.92,2.48-.61.55-1.22.83-1.83.83s-1.25-.27-1.9-.83c-.66-.55-.98-1.37-.98-2.48,0-1.4-.02-2.68-.06-3.83-.04-1.15-.06-2.28-.06-3.38,0-1.3-.28-2.6-.83-3.9-.56-1.3-1.26-2.55-2.11-3.75-.85-1.2-1.84-2.3-2.95-3.3-1.11-1-2.22-1.85-3.33-2.55-1.28-.9-2.82-1.78-4.61-2.63-1.79-.85-3.7-1.6-5.7-2.25-2.01-.65-4.04-1.2-6.09-1.65-2.05-.45-3.97-.68-5.77-.68-2.73,0-5.06.63-6.98,1.88-1.92,1.25-2.88,3.43-2.88,6.53v82.11c0,3.2.68,5.16,2.05,5.85,1.37.7,3.16,1.05,5.38,1.05,1.79,0,3.4-.35,4.8-1.05,1.41-.7,2.11-2.5,2.11-5.4v-38.28h-3.46c-.34,0-.73-.15-1.15-.45-.43-.3-.64-.85-.64-1.65s.21-1.33.64-1.58c.43-.25.81-.38,1.15-.38h40.23Z" fill="#fccb65"/><path d="M132.26,6.72h-10.13c-4.79,0-15.58,0-21.88,2.08-4.79,2.08-10.49,17.77-13.34,22.83-.45.74-.9,1.34-1.65,1.04l-3-1.04c-.6-.3-.75-.74-.6-1.49l6.99-25.77c.3-2.08,1.2-2.67,1.8-2.67.9,0,92.32,0,93.22,0s1.26.18,1.37.8c.21,1.16,3.3,21.1,4.49,28.23.15.89-.15,1.19-.6,1.34l-3,1.04c-.6.15-.9-.3-1.35-1.19-2.1-4.16-7.64-19.56-11.84-22.53-4.2-2.38-17.68-2.67-23.07-2.67h-10.13l.11,95.37c0,2.55,1.78,3.93,4.55,3.93l15.06.04c.6,0,.9.59.9,1.34v3.12c0,.89-.3,1.49-1.5,1.49h-46.15c-.9,0-1.2-.3-1.2-1.34v-3.42c0-.89.45-1.19,1.05-1.19l15.6-.04c3,0,4.27-1.37,4.27-3.97,0-1.14,0-49.33,0-52.3V6.72Z" fill="#fccb65"/><path d="M210.21,71.37c0,9.31.6,27.45.6,29.79,0,3.6.19,5.33,7.71,5.33h9.61c.9,0,1.2.26,1.2.88v3.72c0,1.09-1.44,1.4-2.64,1.4-1.95,0-34.85,0-36.35,0-.73,0-.73-.46-.73-1.39v-3.58c0-.78.82-1.04,1.42-1.04h5.09c3.3,0,5.69-1.14,5.69-5.33.3-15.52.3-30.1.3-44.69V15.67c0-5.28-2.1-7.76-4.79-7.76h-5.84c-.75,0-1.05-.31-1.05-.93V2.79c0-.78.3-1.09,1.05-1.09,1.05,0,42.7,0,47.2,0,5.09,0,10.16,1.55,14.32,3.34,10.09,4.34,16.89,14.12,17.1,25.12,0,.19,0,.38,0,.57,0,2.91-.43,5.83-1.07,8.55-2.3,9.83-9.93,17.62-19.79,19.77-.37.08-.73.15-1.09.21l-1.98.62c4.2,1.55,8.87,4.34,10.97,7.14,1.8,2.48,11.09,17.07,12.29,18.93.9,1.55,8.51,15.52,10.76,17.69,2.85,2.64,7.04,2.84,10.64,2.84.9,0,1.2.57,1.2,1.19v3.26c0,1.09-.7,1.55-1.59,1.55h-14.68c-4.2,0-9.89-.16-13.19,0-1.09-1.79-4.46-5.55-6.2-8.84-2.39-4.52-8.54-15.52-9.89-18-1.5-2.79-5.69-9.93-8.09-13.34-3.75-5.43-7.19-9.62-13.48-9.62-.6,0-13.11.06-14.69,0v8.69ZM210.51,57.41c2.1.31,13.79,0,15.59,0,23.37,0,28.17-18.93,28.17-26.07s-2.85-13.81-6.59-17.38c-5.39-4.97-12.29-6.67-19.78-6.67-2.4,0-14.09.16-15.29.93-1.2.78-1.8,2.64-1.8,4.5l-.3,44.69Z" fill="#fccb65"/><path d="M321.51,71.18c-1.06,0-2,.66-2.34,1.65-2.11,6.09-8.04,23.44-8.71,27.02-.3,1.19-.3,2.38-.3,3.12,0,1.93,2.4,3.57,5.39,3.57h6.29c1.2,0,1.5.3,1.5.74v3.71c0,.89.29,1.49-.6,1.49h-35.36c-.9,0-1.49-.89-1.49-1.93v-2.82c0-.89.73-1.13.9-1.19h4.49c4.2,0,6.89-2.08,9.59-6.69,1.5-2.67,12.29-29.42,16.78-41.9l14.68-38.93c.49-1.45,3.87-11.07,5.21-15.05.33-.98,1.24-2.16,2.28-2.18,7.55-.21,53.36,0,54.03,0,.9,0,1.5,1.78,1.8,2.67,2.7,9.21,14.38,42.49,17.08,52,3.6,11.59,13.45,39.1,15.28,43.23,2.09,4.73,2.11,6.35,2.09,6.3v1.18c.9,0-4.35-.59-4.32.4v3.12c0,1.88-.31,1.78-1.7,1.78h-68.88c-1.2,0-1.3-.89-1.3-1.78v-.52c0-2.01-.33-3.64,1.7-3.64h3.39c4.2,0,5.39-1.49,4.5-5.5-1.1-4.89-6.19-21.19-8.44-28.16-.33-1.02-1.28-1.71-2.36-1.71h-31.19ZM349.62,65.23c1.67,0,2.86-1.6,2.36-3.18-3.04-9.66-10.78-35.4-11.56-37.97-.6-1.78-.9-2.67-1.5-2.67-.9,0-1.5.59-1.95,1.93-.51,1.66-10.51,28.8-14.01,38.63-.57,1.6.63,3.27,2.33,3.27h24.31Z" fill="#fccb65"/><path d="M446.52,94.76c.36,7.75,2.1,11.48,7.49,11.48h3.9c1.2,0,1.2.62,1.2,1.4v3.57c0,.93,0,1.29-1.2,1.29-1.5,0-30.27-.05-31.76,0-1.38.05-.9-.36-.9-1.44v-3.88c0-.31.3-.93.9-.93h5.09c3.9,0,5.99-3.41,6.74-12.87.15-2.79,0-24.51,0-49.32v-19.7c0-9.31-4.05-16.44-10.64-16.44h-4.79c-.6-.16-.9-.47-.9-1.09V2.63c0-.62.3-.93.9-.93h28.77c1.8,0,2.7.47,3.6,1.4,1.5,1.55,30.87,39.7,33.86,44.05,2.1,2.48,25.47,32.57,27.87,35.67h.6v-16.13c0-13.65.17-50.25,0-52.89-.32-4.88-6.29-5.89-9.89-5.89h-4.79c-.9,0-.9-.62-.9-1.4v-3.57c0-.93,0-1.24,1.2-1.24,1.8,0,35.31,0,37.1,0,1.2,0,1.5.62,1.5,1.09v3.57c0,.93-.3,1.55-.9,1.55h-4.2c-3,0-10.73,1.2-10.73,5.77v95.82c0,3.29-2.4,3-4.2,3-2.1,0-33.12,1.24-34.32,0-1.2-1.55-9.75-12.3-19.04-23.78-10.49-13.34-22.2-29.34-22.2-29.34,0,0,.4,29.87.65,35.39Z" fill="#fccb65"/><path d="M653.02,67.2c.15,8.4,0,23.65,0,26.45,0,8.09,3.3,13.19,6.59,14.12,2.4.62,17.87,1.24,23.56,1.24,2.7,0,9.59-.31,12.59-.62,2.7-.31,9.97-2.86,13.87-6.28,2.7-2.49,11.09-12.76,13.93-16.49.6-.78,1.05-.93,1.65-.62l.81.56c.45.31.6.78.3,1.56l-7.19,23.34c-.45,1.4-1.5,2.33-3.3,2.33h-82.41c-.9,0-1.2-.31-1.2-1.24v-1.75c0-.93.3-1.24,1.5-1.24h5.09c6.89,0,7.49-2.92,7.49-8.67v-52.27c0-12.76.05-32.31,0-34.23-.12-4.24-2.7-7.43-7.19-7.43h-5.69c-.6,0-.9-.31-.9-1.09v-2.06c0-.78.15-1.09.9-1.09h78.81c.75,0,1.05.31,1.2.93.6,2.02,6.29,23.18,6.89,24.74.3.93.15,1.4-.45,1.71l-.52.25c-.45.16-.9,0-1.35-.78-.6-.93-12.89-17.23-16.48-19.41-3.15-1.87-9.37-3.38-13.56-3.53h-26.76c-4.34-.08-7.91,3.42-7.94,7.77l-.25,40.24c4.49,0,26.8-.05,28.96,0,3.35.08,5.09-3.85,6.89-7.58.9-2.02,2.4-5.91,2.4-8.71,0-.93.6-1.24,1.2-1.24l1.92.31c.6,0,1.05.31.9,1.24-.3,2.49.3,30.49.6,33.92,0,.78-2.52,1.71-2.52,1.71-.6.16-.9-.16-1.2-1.09-.6-2.49-1.65-5.91-2.4-7.78-1.35-3.11-4.46-7.54-7.77-7.58-5.42-.07-24.18,0-28.98,0v10.38Z" fill="#fccb65"/><path d="M50.73,34.57c7.13,3.84,12.78,7.52,16.98,11.06,4.2,3.54,7.36,7.04,9.5,10.53,2.14,3.48,3.46,7.02,3.98,10.6.51,3.59.65,7.25.42,10.98-.4,6.87-1.62,12.55-3.68,17.04-2.06,4.49-4.67,8.05-7.84,10.68-3.17,2.63-6.71,4.45-10.63,5.45-3.92,1.01-7.9,1.51-11.94,1.51s-8.27-.38-12.23-1.14c-3.96-.76-7.52-1.61-10.69-2.58-3.17-.96-5.78-1.84-7.84-2.65-2.06-.81-3.21-1.31-3.44-1.51-.4-.2-.85-.35-1.37-.45-.52-.1-1.05-.15-1.6-.15-.95,0-1.76.43-2.43,1.29-.67.86-.89,2.55-.65,5.07,0,1.51-.67,2.27-2.02,2.27-1.27,0-2.02-.36-2.26-1.06-.16-.3-.24-.66-.24-1.06-.08-5.76-.12-11.01-.12-15.75v-18.03c0-.71.28-1.26.83-1.67.55-.4,1.03-.61,1.43-.61.63,0,1.19.25,1.66.76.48.51.71,1.01.71,1.51,0,2.53.08,4.65.24,6.36.16,1.72.43,3.21.83,4.47.4,1.26.91,2.37,1.54,3.33.63.96,1.38,1.89,2.26,2.8,3.64,3.74,7.46,6.41,11.46,8.03,4,1.62,8.29,2.68,12.89,3.18.4,0,.77.03,1.13.08.36.05.69.08,1.01.08,2.93,0,5.03-.5,6.29-1.51,1.27-1.01,1.9-2.27,1.9-3.79s-.58-3.13-1.72-4.85c-1.15-1.72-2.63-3.28-4.45-4.7-6.57-4.95-12.11-9.09-16.63-12.42-4.51-3.33-8.43-6.31-11.76-8.94-2.06-1.51-3.86-3.23-5.4-5.15-1.54-1.92-2.85-4.14-3.92-6.67-1.07-2.52-1.84-5.45-2.32-8.79-.48-3.33-.67-7.17-.59-11.51.08-5.45.69-10.1,1.84-13.94,1.15-3.84,2.71-7.04,4.69-9.62,1.98-2.58,4.31-4.59,7.01-6.06,2.69-1.46,5.62-2.6,8.79-3.41,2.77-.71,5.46-1.21,8.08-1.51,2.61-.3,5.11-.45,7.48-.45,4.28,0,8.15.43,11.64,1.29,3.48.86,6.55,1.87,9.2,3.03,2.65,1.16,4.89,2.27,6.71,3.33,1.82,1.06,3.21,1.74,4.16,2.04.79.2,1.64-.35,2.55-1.67.91-1.31,1.32-2.83,1.25-4.54,0-.81.4-1.41,1.19-1.82.32-.1.67-.15,1.07-.15s.71.13.95.38c.24.25.43.48.59.68.16.3.28.61.36.91v31.81c0,1.01-.28,1.62-.83,1.82-.55.2-1.07.3-1.54.3-.63,0-1.13-.18-1.48-.53-.36-.35-.58-.78-.65-1.29-.4-5.55-1.56-10.15-3.5-13.79-1.94-3.64-4.28-6.51-7.01-8.63-2.73-2.12-5.62-3.61-8.67-4.47-3.05-.86-5.88-1.29-8.49-1.29-1.82,0-3.43.13-4.81.38-1.39.25-2.48.68-3.27,1.29-1.9,1.51-3.05,3.06-3.44,4.62-.4,1.57-.28,3.16.36,4.77.63,1.62,1.66,3.16,3.09,4.62,1.43,1.47,2.97,2.83,4.63,4.09,1.66,1.26,3.28,2.4,4.87,3.41,1.58,1.01,2.89,1.77,3.92,2.27Z" fill="#fccb65"/><path d="M826.92,4.54h.5c4.96,0,6.61,5.34,6.61,9.07v49.68c0,29.88,20.83,50.04,49.1,49.99,20.75-.04,39.39-21.52,39.39-47.5V13.35c0-3.74,1.65-9.07,6.61-9.07h.5c1.32,0,2.15-1.07,2.15-2.14s-.83-2.13-2.15-2.13h-25.63c-1.32,0-2.15,1.07-2.15,2.13s.83,2.14,2.15,2.14h.17c4.96,0,6.61,5.34,6.61,9.07v33.3l-.07,20.5c0,19.03-12.59,31.32-26.42,31.54-18.85.3-28.26-15.3-28.26-34.33V13.61c0-3.53,1.48-8.49,5.83-9.03.67-.08,1.32-.3,1.88-.67.6-.4,1.22-.96,1.22-1.51,0-1.07-.83-2.13-2.15-2.13h-35.89c-1.32,0-2.15,1.07-2.15,2.13s.83,2.14,2.15,2.14Z" fill="#fccb65"/><path d="M986.77,113.28c23.44,0,40.89-16.34,45.77-36.33.56-2.29-2.93-3.82-3.91-1.68-6.98,14.35-19.4,26.41-38.51,26.41-22.75,0-39.91-17.86-39.91-44.73,0-28.4,16.89-47.63,38.93-47.63,19.4,0,37.29,11.04,37.68,25.5,0,2.79,4.16,2.79,4.19,0V6.56c-.42-1.98-4.05-1.68-4.19-.15-.15,1.57.37,6.06-2.17,6.78-2.15.61-7.19-2.22-9.55-4.03-5.72-4.58-14.93-9.16-27.07-9.16-29.16,0-54.42,23.82-54.42,56.94s24.56,56.33,53.17,56.33Z" fill="#fccb65"/><path d="M1161.53,126.35h-3.07c-.56.24-1.06.63-1.47,1.17-1.05,1.36-1.56,3.6-1.07,6.32,1.31,6.4-4.92,12.45-14.93,12.45-11.49,0-21.66-11.95-26.42-17.5-.65-.76-1.31-1.58-1.99-2.43-2.33-2.96-4.83-6.49-7.41-10.41-13.72-20.86-29.93-53.07-37.86-72.71.08-.11.15-.21.24-.32,19.68-26.49,43.54-39.03,49.54-39.03h.42c1.12,0,1.81-.93,1.81-1.86s-.7-1.86-1.81-1.86h-26.65c-1.12,0-1.81.93-1.81,1.86s.7,1.86,1.81,1.86c.84,0,1.12.93.14,1.7-1.95,1.55-26.23,22.46-35.72,40.89V11.77c0-3.25,1.4-7.9,5.58-7.9h.14c1.12,0,1.81-.93,1.81-1.86s-.7-1.86-1.81-1.86h-25.96c-1.12,0-1.81.93-1.81,1.86s.7,1.86,1.81,1.86h.42c4.19,0,5.58,4.65,5.58,7.9v91.23c0,3.25-1.4,7.9-5.58,7.9h-.42c-1.12,0-1.81.93-1.81,1.86s.7,1.86,1.81,1.86h25.96c1.12,0,1.81-.93,1.81-1.86s-.7-1.86-1.81-1.86h-.14c-4.19,0-5.58-4.65-5.58-7.9v-40.43c1.54-2.97,3.16-5.93,4.91-8.77,9.05,22.71,20.75,46.87,29.85,62.13,2.44,4.08,4.69,7.54,6.65,10.15.07.09.13.17.2.26,13.73,18.32,28.25,26,40.66,26,18.54,0,27.73-11.78,27.73-20.03,0-3.04-1.62-5.24-3.75-5.97Z" fill="#fccb65"/><path d="M879.28,126.35h-1.77c-3.01.43-4.31,3.71-4.31,7.14,0,2.94,1.84,5.51,1.84,6.12,0,2.39-5.3,5.98-10.81,5.98-6.24,0-17.43-7.85-28.79-19.24h0c-3.21-3.22-6.44-6.72-9.58-10.41h0c-5.3-6.23-10.33-12.99-14.57-19.8-.04-13.76-.27-78.55-.27-78.55,0-8.4,2.73-13.12,7.69-13.12,1.22,0,2.45-.79,2.45-2.01s-.81-2.18-2.14-2.18l-49.86.15c-1.32,0-20.8,4.3-22.13,19.35,0,1.39.88,17.2,14.16,23.65l11.03.2c3.39-.11,5.99-2.95,5.7-6.23-13.18-4.52-10.65-33.1,3.11-32.93,5.83-.18,8.28,7.7,8.15,13.12v83.24c0,4.85.13,6.19-3.07,6.19-2.58-.5-3.94,4.22-.97,4.62h13.11c2.56,0,6.05.85,10.16,4.3,1.88,1.58,3.89,3.7,6.01,6.53.47.63,1.85,2.13,3.54,3.88h0c3.19,3.33,7.46,7.59,8.6,8.56,11.5,9.83,20.85,16.93,37.3,16.93,10.65,0,20.97-6.53,20.97-17.73,0-4.6-1.14-7.37-5.55-7.75Z" fill="#fccb65"/><path d="M634.17,58.84c1.2,0,1.79.65,1.79,1.95,0,1.4-.6,2.1-1.79,2.1h-3.46v33.03c0,2.5-.7,4.71-2.09,6.61-1.4,1.9-3.23,3.5-5.51,4.8-2.28,1.3-4.87,2.38-7.77,3.23-2.9.85-5.87,1.52-8.9,2.03-3.03.5-6,.83-8.9.98-2.9.15-5.51.23-7.82.23-7,0-13.64-.73-19.92-2.18-6.28-1.45-11.79-4.23-16.53-8.33-4.74-4.1-8.52-9.86-11.34-17.26-2.82-7.4-4.23-17.06-4.23-28.97,0-10.61.98-19.39,2.95-26.35,1.96-6.95,4.85-12.51,8.65-16.66,3.8-4.15,8.48-7.08,14.03-8.78,5.55-1.7,11.91-2.55,19.09-2.55,5.89,0,11,.43,15.31,1.28,4.31.85,7.9,1.83,10.76,2.93,2.86,1.1,5.08,2.18,6.66,3.23,1.58,1.05,2.63,1.78,3.14,2.18,1.62,1.2,2.86,2.2,3.72,3,.85.8,1.45,1.25,1.79,1.35.17.1.3,0,.38-.3.08-.3.15-.68.19-1.13.04-.45.06-.87.06-1.28v-6.3c0-1.1.33-1.93.98-2.48.65-.55,1.29-.83,1.9-.83s1.22.3,1.83.9c.61.6.92,1.45.92,2.55v30.32c0,1.1-.31,1.93-.92,2.48-.61.55-1.22.83-1.83.83s-1.25-.27-1.9-.83c-.66-.55-.98-1.37-.98-2.48,0-1.4-.02-2.68-.06-3.83-.04-1.15-.06-2.28-.06-3.38,0-1.3-.28-2.6-.83-3.9-.56-1.3-1.26-2.55-2.11-3.75-.85-1.2-1.84-2.3-2.95-3.3-1.11-1-2.22-1.85-3.33-2.55-1.28-.9-2.82-1.78-4.61-2.63-1.79-.85-3.7-1.6-5.7-2.25-2.01-.65-4.04-1.2-6.09-1.65-2.05-.45-3.97-.68-5.77-.68-2.73,0-5.06.63-6.98,1.88-1.92,1.25-2.88,3.43-2.88,6.53v82.11c0,3.2.68,5.16,2.05,5.85,1.37.7,3.16,1.05,5.38,1.05,1.79,0,3.4-.35,4.8-1.05,1.41-.7,2.11-2.5,2.11-5.4v-38.28h-3.46c-.34,0-.73-.15-1.15-.45-.43-.3-.64-.85-.64-1.65s.21-1.33.64-1.58c.43-.25.81-.38,1.15-.38h40.23Z" fill="#fff"/><path d="M136.23,7.72h-10.13c-4.79,0-15.58,0-21.88,2.08-4.79,2.08-10.49,17.77-13.34,22.83-.45.74-.9,1.34-1.65,1.04l-3-1.04c-.6-.3-.75-.74-.6-1.49l6.99-25.77c.3-2.08,1.2-2.67,1.8-2.67.9,0,92.32,0,93.22,0s1.26.18,1.37.8c.21,1.16,3.3,21.1,4.49,28.23.15.89-.15,1.19-.6,1.34l-3,1.04c-.6.15-.9-.3-1.35-1.19-2.1-4.16-7.64-19.56-11.84-22.53-4.2-2.38-17.68-2.67-23.07-2.67h-10.13l.11,95.37c0,2.55,1.78,3.93,4.55,3.93l15.06.04c.6,0,.9.59.9,1.34v3.12c0,.89-.3,1.49-1.5,1.49h-46.15c-.9,0-1.2-.3-1.2-1.34v-3.42c0-.89.45-1.19,1.05-1.19l15.6-.04c3,0,4.27-1.37,4.27-3.97,0-1.14,0-49.33,0-52.3V7.72Z" fill="#fff"/><path d="M214.18,72.37c0,9.31.6,27.45.6,29.79,0,3.6.19,5.33,7.71,5.33h9.61c.9,0,1.2.26,1.2.88v3.72c0,1.09-1.44,1.4-2.64,1.4-1.95,0-34.85,0-36.35,0-.73,0-.73-.46-.73-1.39v-3.58c0-.78.82-1.04,1.42-1.04h5.09c3.3,0,5.69-1.14,5.69-5.33.3-15.52.3-30.1.3-44.69V16.67c0-5.28-2.1-7.76-4.79-7.76h-5.84c-.75,0-1.05-.31-1.05-.93V3.79c0-.78.3-1.09,1.05-1.09,1.05,0,42.7,0,47.2,0,5.09,0,10.16,1.55,14.32,3.34,10.09,4.34,16.89,14.12,17.1,25.12,0,.19,0,.38,0,.57,0,2.91-.43,5.83-1.07,8.55-2.3,9.83-9.93,17.62-19.79,19.77-.37.08-.73.15-1.09.21l-1.98.62c4.2,1.55,8.87,4.34,10.97,7.14,1.8,2.48,11.09,17.07,12.29,18.93.9,1.55,8.51,15.52,10.76,17.69,2.85,2.64,7.04,2.84,10.64,2.84.9,0,1.2.57,1.2,1.19v3.26c0,1.09-.7,1.55-1.59,1.55h-14.68c-4.2,0-9.89-.16-13.19,0-1.09-1.79-4.46-5.55-6.2-8.84-2.39-4.52-8.54-15.52-9.89-18-1.5-2.79-5.69-9.93-8.09-13.34-3.75-5.43-7.19-9.62-13.48-9.62-.6,0-13.11.06-14.69,0v8.69ZM214.48,58.41c2.1.31,13.79,0,15.59,0,23.37,0,28.17-18.93,28.17-26.07s-2.85-13.81-6.59-17.38c-5.39-4.97-12.29-6.67-19.78-6.67-2.4,0-14.09.16-15.29.93-1.2.78-1.8,2.64-1.8,4.5l-.3,44.69Z" fill="#fff"/><path d="M325.48,72.18c-1.06,0-2,.66-2.34,1.65-2.11,6.09-8.04,23.44-8.71,27.02-.3,1.19-.3,2.38-.3,3.12,0,1.93,2.4,3.57,5.39,3.57h6.29c1.2,0,1.5.3,1.5.74v3.71c0,.89.29,1.49-.6,1.49h-35.36c-.9,0-1.49-.89-1.49-1.93v-2.82c0-.89.73-1.13.9-1.19h4.49c4.2,0,6.89-2.08,9.59-6.69,1.5-2.67,12.29-29.42,16.78-41.9l14.68-38.93c.49-1.45,3.87-11.07,5.21-15.05.33-.98,1.24-2.16,2.28-2.18,7.55-.21,53.36,0,54.03,0,.9,0,1.5,1.78,1.8,2.67,2.7,9.21,14.38,42.49,17.08,52,3.6,11.59,13.45,39.1,15.28,43.23,2.09,4.73,2.11,6.35,2.09,6.3v1.18c.9,0-4.35-.59-4.32.4v3.12c0,1.88-.31,1.78-1.7,1.78h-68.88c-1.2,0-1.3-.89-1.3-1.78v-.52c0-2.01-.33-3.64,1.7-3.64h3.39c4.2,0,5.39-1.49,4.5-5.5-1.1-4.89-6.19-21.19-8.44-28.16-.33-1.02-1.28-1.71-2.36-1.71h-31.19ZM353.59,66.23c1.67,0,2.86-1.6,2.36-3.18-3.04-9.66-10.78-35.4-11.56-37.97-.6-1.78-.9-2.67-1.5-2.67-.9,0-1.5.59-1.95,1.93-.51,1.66-10.51,28.8-14.01,38.63-.57,1.6.63,3.27,2.33,3.27h24.31Z" fill="#fff"/><path d="M450.48,95.76c.36,7.75,2.1,11.48,7.49,11.48h3.9c1.2,0,1.2.62,1.2,1.4v3.57c0,.93,0,1.29-1.2,1.29-1.5,0-30.27-.05-31.76,0-1.38.05-.9-.36-.9-1.44v-3.88c0-.31.3-.93.9-.93h5.09c3.9,0,5.99-3.41,6.74-12.87.15-2.79,0-24.51,0-49.32v-19.7c0-9.31-4.05-16.44-10.64-16.44h-4.79c-.6-.16-.9-.47-.9-1.09V3.63c0-.62.3-.93.9-.93h28.77c1.8,0,2.7.47,3.6,1.4,1.5,1.55,30.87,39.7,33.86,44.05,2.1,2.48,25.47,32.57,27.87,35.67h.6v-16.13c0-13.65.17-50.25,0-52.89-.32-4.88-6.29-5.89-9.89-5.89h-4.79c-.9,0-.9-.62-.9-1.4v-3.57c0-.93,0-1.24,1.2-1.24,1.8,0,35.31,0,37.1,0,1.2,0,1.5.62,1.5,1.09v3.57c0,.93-.3,1.55-.9,1.55h-4.2c-3,0-10.73,1.2-10.73,5.77v95.82c0,3.29-2.4,3-4.2,3-2.1,0-33.12,1.24-34.32,0-1.2-1.55-9.75-12.3-19.04-23.78-10.49-13.34-22.2-29.34-22.2-29.34,0,0,.4,29.87.65,35.39Z" fill="#fff"/><path d="M656.98,68.2c.15,8.4,0,23.65,0,26.45,0,8.09,3.3,13.19,6.59,14.12,2.4.62,17.87,1.24,23.56,1.24,2.7,0,9.59-.31,12.59-.62,2.7-.31,9.97-2.86,13.87-6.28,2.7-2.49,11.09-12.76,13.93-16.49.6-.78,1.05-.93,1.65-.62l.81.56c.45.31.6.78.3,1.56l-7.19,23.34c-.45,1.4-1.5,2.33-3.3,2.33h-82.41c-.9,0-1.2-.31-1.2-1.24v-1.75c0-.93.3-1.24,1.5-1.24h5.09c6.89,0,7.49-2.92,7.49-8.67v-52.27c0-12.76.05-32.31,0-34.23-.12-4.24-2.7-7.43-7.19-7.43h-5.69c-.6,0-.9-.31-.9-1.09v-2.06c0-.78.15-1.09.9-1.09h78.81c.75,0,1.05.31,1.2.93.6,2.02,6.29,23.18,6.89,24.74.3.93.15,1.4-.45,1.71l-.52.25c-.45.16-.9,0-1.35-.78-.6-.93-12.89-17.23-16.48-19.41-3.15-1.87-9.37-3.38-13.56-3.53h-26.76c-4.34-.08-7.91,3.42-7.94,7.77l-.25,40.24c4.49,0,26.8-.05,28.96,0,3.35.08,5.09-3.85,6.89-7.58.9-2.02,2.4-5.91,2.4-8.71,0-.93.6-1.24,1.2-1.24l1.92.31c.6,0,1.05.31.9,1.24-.3,2.49.3,30.49.6,33.92,0,.78-2.52,1.71-2.52,1.71-.6.16-.9-.16-1.2-1.09-.6-2.49-1.65-5.91-2.4-7.78-1.35-3.11-4.46-7.54-7.77-7.58-5.42-.07-24.18,0-28.98,0v10.38Z" fill="#fff"/><path d="M54.69,35.57c7.13,3.84,12.78,7.52,16.98,11.06,4.2,3.54,7.36,7.04,9.5,10.53,2.14,3.48,3.46,7.02,3.98,10.6.51,3.59.65,7.25.42,10.98-.4,6.87-1.62,12.55-3.68,17.04-2.06,4.49-4.67,8.05-7.84,10.68-3.17,2.63-6.71,4.45-10.63,5.45-3.92,1.01-7.9,1.51-11.94,1.51s-8.27-.38-12.23-1.14c-3.96-.76-7.52-1.61-10.69-2.58-3.17-.96-5.78-1.84-7.84-2.65-2.06-.81-3.21-1.31-3.44-1.51-.4-.2-.85-.35-1.37-.45-.52-.1-1.05-.15-1.6-.15-.95,0-1.76.43-2.43,1.29-.67.86-.89,2.55-.65,5.07,0,1.51-.67,2.27-2.02,2.27-1.27,0-2.02-.36-2.26-1.06-.16-.3-.24-.66-.24-1.06-.08-5.76-.12-11.01-.12-15.75v-18.03c0-.71.28-1.26.83-1.67.55-.4,1.03-.61,1.43-.61.63,0,1.19.25,1.66.76.48.51.71,1.01.71,1.51,0,2.53.08,4.65.24,6.36.16,1.72.43,3.21.83,4.47.4,1.26.91,2.37,1.54,3.33.63.96,1.38,1.89,2.26,2.8,3.64,3.74,7.46,6.41,11.46,8.03,4,1.62,8.29,2.68,12.89,3.18.4,0,.77.03,1.13.08.36.05.69.08,1.01.08,2.93,0,5.03-.5,6.29-1.51,1.27-1.01,1.9-2.27,1.9-3.79s-.58-3.13-1.72-4.85c-1.15-1.72-2.63-3.28-4.45-4.7-6.57-4.95-12.11-9.09-16.63-12.42-4.51-3.33-8.43-6.31-11.76-8.94-2.06-1.51-3.86-3.23-5.4-5.15-1.54-1.92-2.85-4.14-3.92-6.67-1.07-2.52-1.84-5.45-2.32-8.79-.48-3.33-.67-7.17-.59-11.51.08-5.45.69-10.1,1.84-13.94,1.15-3.84,2.71-7.04,4.69-9.62,1.98-2.58,4.31-4.59,7.01-6.06,2.69-1.46,5.62-2.6,8.79-3.41,2.77-.71,5.46-1.21,8.08-1.51,2.61-.3,5.11-.45,7.48-.45,4.28,0,8.15.43,11.64,1.29,3.48.86,6.55,1.87,9.2,3.03,2.65,1.16,4.89,2.27,6.71,3.33,1.82,1.06,3.21,1.74,4.16,2.04.79.2,1.64-.35,2.55-1.67.91-1.31,1.32-2.83,1.25-4.54,0-.81.4-1.41,1.19-1.82.32-.1.67-.15,1.07-.15s.71.13.95.38c.24.25.43.48.59.68.16.3.28.61.36.91v31.81c0,1.01-.28,1.62-.83,1.82-.55.2-1.07.3-1.54.3-.63,0-1.13-.18-1.48-.53-.36-.35-.58-.78-.65-1.29-.4-5.55-1.56-10.15-3.5-13.79-1.94-3.64-4.28-6.51-7.01-8.63-2.73-2.12-5.62-3.61-8.67-4.47-3.05-.86-5.88-1.29-8.49-1.29-1.82,0-3.43.13-4.81.38-1.39.25-2.48.68-3.27,1.29-1.9,1.51-3.05,3.06-3.44,4.62-.4,1.57-.28,3.16.36,4.77.63,1.62,1.66,3.16,3.09,4.62,1.43,1.47,2.97,2.83,4.63,4.09,1.66,1.26,3.28,2.4,4.87,3.41,1.58,1.01,2.89,1.77,3.92,2.27Z" fill="#fff"/><path d="M830.88,5.54h.5c4.96,0,6.61,5.34,6.61,9.07v49.68c0,29.88,20.83,50.04,49.1,49.99,20.75-.04,39.39-21.52,39.39-47.5V14.35c0-3.74,1.65-9.07,6.61-9.07h.5c1.32,0,2.15-1.07,2.15-2.14s-.83-2.13-2.15-2.13h-25.63c-1.32,0-2.15,1.07-2.15,2.13s.83,2.14,2.15,2.14h.17c4.96,0,6.61,5.34,6.61,9.07v33.3l-.07,20.5c0,19.03-12.59,31.32-26.42,31.54-18.85.3-28.26-15.3-28.26-34.33V14.61c0-3.53,1.48-8.49,5.83-9.03.67-.08,1.32-.3,1.88-.67.6-.4,1.22-.96,1.22-1.51,0-1.07-.83-2.13-2.15-2.13h-35.89c-1.32,0-2.15,1.07-2.15,2.13s.83,2.14,2.15,2.14Z" fill="#fff"/><path d="M990.73,114.28c23.44,0,40.89-16.34,45.77-36.33.56-2.29-2.93-3.82-3.91-1.68-6.98,14.35-19.4,26.41-38.51,26.41-22.75,0-39.91-17.86-39.91-44.73,0-28.4,16.89-47.63,38.93-47.63,19.4,0,37.29,11.04,37.68,25.5,0,2.79,4.16,2.79,4.19,0V7.56c-.42-1.98-4.05-1.68-4.19-.15-.15,1.57.37,6.06-2.17,6.78-2.15.61-7.19-2.22-9.55-4.03-5.72-4.58-14.93-9.16-27.07-9.16-29.16,0-54.42,23.82-54.42,56.94s24.56,56.33,53.17,56.33Z" fill="#fff"/><path d="M1165.49,127.35h-3.07c-.56.24-1.06.63-1.47,1.17-1.05,1.36-1.56,3.6-1.07,6.32,1.31,6.4-4.92,12.45-14.93,12.45-11.49,0-21.66-11.95-26.42-17.5-.65-.76-1.31-1.58-1.99-2.43-2.33-2.96-4.83-6.49-7.41-10.41-13.72-20.86-29.93-53.07-37.86-72.71.08-.11.15-.21.24-.32,19.68-26.49,43.54-39.03,49.54-39.03h.42c1.12,0,1.81-.93,1.81-1.86s-.7-1.86-1.81-1.86h-26.65c-1.12,0-1.81.93-1.81,1.86s.7,1.86,1.81,1.86c.84,0,1.12.93.14,1.7-1.95,1.55-26.23,22.46-35.72,40.89V12.77c0-3.25,1.4-7.9,5.58-7.9h.14c1.12,0,1.81-.93,1.81-1.86s-.7-1.86-1.81-1.86h-25.96c-1.12,0-1.81.93-1.81,1.86s.7,1.86,1.81,1.86h.42c4.19,0,5.58,4.65,5.58,7.9v91.23c0,3.25-1.4,7.9-5.58,7.9h-.42c-1.12,0-1.81.93-1.81,1.86s.7,1.86,1.81,1.86h25.96c1.12,0,1.81-.93,1.81-1.86s-.7-1.86-1.81-1.86h-.14c-4.19,0-5.58-4.65-5.58-7.9v-40.43c1.54-2.97,3.16-5.93,4.91-8.77,9.05,22.71,20.75,46.87,29.85,62.13,2.44,4.08,4.69,7.54,6.65,10.15.07.09.13.17.2.26,13.73,18.32,28.25,26,40.66,26,18.54,0,27.73-11.78,27.73-20.03,0-3.04-1.62-5.24-3.75-5.97Z" fill="#fff"/><path d="M883.25,127.35h-1.77c-3.01.43-4.31,3.71-4.31,7.14,0,2.94,1.84,5.51,1.84,6.12,0,2.39-5.3,5.98-10.81,5.98-6.24,0-17.43-7.85-28.79-19.24h0c-3.21-3.22-6.44-6.72-9.58-10.41h0c-5.3-6.23-10.33-12.99-14.57-19.8-.04-13.76-.27-78.55-.27-78.55,0-8.4,2.73-13.12,7.69-13.12,1.22,0,2.45-.79,2.45-2.01s-.81-2.18-2.14-2.18l-49.86.15c-1.32,0-20.8,4.3-22.13,19.35,0,1.39.88,17.2,14.16,23.65l11.03.2c3.39-.11,5.99-2.95,5.7-6.23-13.18-4.52-10.65-33.1,3.11-32.93,5.83-.18,8.28,7.7,8.15,13.12v83.24c0,4.85.13,6.19-3.07,6.19-2.58-.5-3.94,4.22-.97,4.62h13.11c2.56,0,6.05.85,10.16,4.3,1.88,1.58,3.89,3.7,6.01,6.53.47.63,1.85,2.13,3.54,3.88h0c3.19,3.33,7.46,7.59,8.6,8.56,11.5,9.83,20.85,16.93,37.3,16.93,10.65,0,20.97-6.53,20.97-17.73,0-4.6-1.14-7.37-5.55-7.75Z" fill="#fff"/></svg>