<svg width="94" height="44" viewBox="0 0 94 44" fill="none" xmlns="http://www.w3.org/2000/svg">
<g filter="url(#filter0_df_2093_131)">
<g filter="url(#filter1_d_2093_131)">
<mask id="path-1-inside-1_2093_131" fill="white">
<path d="M4.55322 2H87.0366V35.6278H4.55322V2Z"/>
</mask>
<path d="M4.55322 2H87.0366V35.6278H4.55322V2Z" fill="#D9D9D9" fill-opacity="0.3" shape-rendering="crispEdges"/>
<path d="M4.55322 2V0H2.55322V2H4.55322ZM4.55322 2V4H87.0366V2V0H4.55322V2ZM4.55322 35.6278H6.55322V2H4.55322H2.55322V35.6278H4.55322Z" fill="white" mask="url(#path-1-inside-1_2093_131)"/>
</g>
<path d="M31.7021 32.3098L31.7021 5.34985L47.5605 18.8293L31.7021 32.3098Z" fill="white" stroke="black"/>
<path d="M15.2056 32.2939L15.2056 5.33398L31.064 18.8135L15.2056 32.2939Z" fill="white" stroke="black"/>
<rect x="54.2744" y="6.03809" width="27.4554" height="26.1864" rx="5.5" stroke="white" stroke-width="3"/>
<path d="M69.271 18.8143L58.802 27.8807V9.7478L69.271 18.8143Z" fill="white"/>
<path d="M80.6919 18.8143L70.2229 27.8807V9.7478L80.6919 18.8143Z" fill="white"/>
</g>
<defs>
<filter id="filter0_df_2093_131" x="0.553223" y="0" width="90.4834" height="43.6279" filterUnits="userSpaceOnUse" color-interpolation-filters="sRGB">
<feFlood flood-opacity="0" result="BackgroundImageFix"/>
<feColorMatrix in="SourceAlpha" type="matrix" values="0 0 0 0 0 0 0 0 0 0 0 0 0 0 0 0 0 0 127 0" result="hardAlpha"/>
<feOffset dy="4"/>
<feGaussianBlur stdDeviation="2"/>
<feComposite in2="hardAlpha" operator="out"/>
<feColorMatrix type="matrix" values="0 0 0 0 0 0 0 0 0 0 0 0 0 0 0 0 0 0 0.25 0"/>
<feBlend mode="normal" in2="BackgroundImageFix" result="effect1_dropShadow_2093_131"/>
<feBlend mode="normal" in="SourceGraphic" in2="effect1_dropShadow_2093_131" result="shape"/>
<feGaussianBlur stdDeviation="1" result="effect2_foregroundBlur_2093_131"/>
</filter>
<filter id="filter1_d_2093_131" x="2.55322" y="2" width="90.4834" height="41.6279" filterUnits="userSpaceOnUse" color-interpolation-filters="sRGB">
<feFlood flood-opacity="0" result="BackgroundImageFix"/>
<feColorMatrix in="SourceAlpha" type="matrix" values="0 0 0 0 0 0 0 0 0 0 0 0 0 0 0 0 0 0 127 0" result="hardAlpha"/>
<feOffset dx="2" dy="4"/>
<feGaussianBlur stdDeviation="2"/>
<feComposite in2="hardAlpha" operator="out"/>
<feColorMatrix type="matrix" values="0 0 0 0 0 0 0 0 0 0 0 0 0 0 0 0 0 0 1 0"/>
<feBlend mode="normal" in2="BackgroundImageFix" result="effect1_dropShadow_2093_131"/>
<feBlend mode="normal" in="SourceGraphic" in2="effect1_dropShadow_2093_131" result="shape"/>
</filter>
</defs>
</svg>
